<?xml version="1.0" encoding="utf-8"?>
<!-- Generator: Adobe Illustrator 23.0.0, SVG Export Plug-In . SVG Version: 6.00 Build 0)  -->
<svg version="1.1" id="Laço_e_texto" xmlns="http://www.w3.org/2000/svg" xmlns:xlink="http://www.w3.org/1999/xlink" x="0px"
	 y="0px" viewBox="0 0 595.3 841.9" style="enable-background:new 0 0 595.3 841.9;" xml:space="preserve">
<style type="text/css">
	.st0{fill:#494949;}
	.st1{fill:#FFFFFF;}
	.st2{fill:#2B250F;}
	.st3{display:none;fill:none;stroke:#000000;stroke-width:1.1043;stroke-miterlimit:10;}
	.st4{fill:#272322;}
	.st5{fill:#1F1B18;}
	.st6{fill:#24221F;}
	.st7{fill:#2B2926;}
	.st8{display:none;fill:none;}
	.st9{fill:#282828;}
</style>
<g>
	<g id="Tocha">
		<g id="Tocha_1_">
			<path d="M359.7,96.7c-3.8,3.7-13,16.4-20,8.1c-6.1-37-29.7-19.7-43.5-62.3c0,13.4-9.2,39.6-14.6,46.3
				c-10.6,13.1-19.6,21.6-21.2,43.8c-5.2-5-17.4-13-22.6-13c21.5,32.8-0.7,50.2,10.3,80.9H244V213h13.2v13.2h-5.1v12.3h11.5v13.7
				h20.3v501.2h-7.1v11.4h5.2v23.4h-3.2v11.4h43.1v-11.4h-3.2v-23.4h5.2v-11.4h-7.1V252.1h20.3v-13.7h11.5v-12.3h-5.1V213h13.1
				v-12.6h-4.5C353.8,159.3,371.2,174.1,359.7,96.7z"/>
		</g>
		<g>
			<path class="st0" d="M355.1,109.5c-3.3,3.3-13.6,10.7-21,0c-6.3-33.9-27.2-27.1-35.7-47.1c0,11.9-10.1,31.4-15.3,36.9
				c-10.4,10.8-16.7,26.7-18.1,46.4c-4.5-4.5-11.1-13.3-15.6-13.3c16.3,29.8-2.4,40.6,7.1,67.9h87.9
				C346.2,163.8,363.5,168.1,355.1,109.5z"/>
			<g id="Amarelo">
				<rect x="265.5" y="240.9" class="st1" width="69.4" height="8.7"/>
				<rect x="254.6" y="228.4" class="st1" width="91.1" height="7.8"/>
				<rect x="259.5" y="214.8" class="st1" width="81.5" height="8.9"/>
				<rect x="281.2" y="790.2" class="st1" width="38" height="7.3"/>
				<rect x="284.2" y="768.9" class="st1" width="31.9" height="14.9"/>
				<polygon class="st1" points="314.3,755.3 314.3,252.1 286.1,252.1 286.1,755.3 279.5,755.3 279.5,762.6 320.9,762.6 
					320.9,755.3 				"/>
				<g>
					<path class="st1" d="M352.3,116.8c0,45.8-5.3,55.2-7.9,78.8c-3.1,0-5.5,0-5.5,0C339.7,186.5,312.7,178.6,352.3,116.8z"/>
					<path d="M345.1,196.4h-7.3l0.1-1c0.2-1.7-1-3.6-2.4-6c-5.3-8.6-15.1-24.7,16-73.2l1.6-2.5v3c0,31.8-2.5,45.9-5,59.7
						c-1.1,6.1-2.1,12-2.9,19.2L345.1,196.4z M339.7,194.6h3.8c0.8-6.9,1.8-12.6,2.9-18.5c2.4-13.2,4.8-26.8,5-56.3
						c-28.4,45.5-19.3,60.6-14.3,68.7C338.4,190.8,339.6,192.7,339.7,194.6z"/>
				</g>
				<g>
					<path class="st1" d="M301.6,82.5c6.3-2.5,17.4,33,16.7,50.7c2.7-4.4,6.8-5.2,12.2-23c3.2,58.6-11.4,65.8-17.2,90.1h-15.6
						c-0.6-6.2,1.3-15,6.3-24.5C317,150.9,295.1,121.2,301.6,82.5z"/>
					<path d="M314,201.2h-17.1l-0.1-0.8c-0.7-6.8,1.6-15.9,6.4-25c6.8-12.9,3.9-27.2,0.6-43.7c-2.9-14.6-6.2-31.1-3.1-49.4l0.1-0.5
						l0.5-0.2c0.7-0.3,1.7-0.4,3,0.6c6.3,4.5,14.6,31.9,14.9,48.3c0.2-0.3,0.5-0.6,0.8-0.9c2.5-2.9,5.7-6.6,9.7-19.6l1.5-4.7l0.3,5
						c2.3,42-4.6,58-10.7,72.1c-2.5,5.8-4.9,11.3-6.5,18.2L314,201.2z M298.5,199.5h14.1c1.7-6.7,4-12.1,6.4-17.8
						c5.8-13.4,12.3-28.6,10.8-66.6c-3.5,9.8-6.4,13.1-8.6,15.7c-0.9,1-1.6,1.8-2.2,2.9l-1.8,3l0.2-3.5c0.7-16.2-8.4-45.4-14.1-49.5
						c-0.4-0.3-0.7-0.4-0.9-0.4c-2.8,17.8,0.4,33.9,3.2,48.2c3.4,16.9,6.3,31.4-0.8,44.9C300.4,184.7,298.1,193.1,298.5,199.5z"/>
				</g>
				<g>
					<path class="st1" d="M261.6,153.5c6.3-0.6,12.9,3.5,14.6,12.3c2.5-6.5,2.3-14.6-0.8-28.4c10.7,18.8,28.3,25.2,24,62.9h-34.7
						c-1.2-6.3-9.7-12.9-3.4-21.9C268.3,168.5,267.6,163.2,261.6,153.5z"/>
					<path d="M300.2,201.2H264l-0.1-0.7c-0.3-1.8-1.4-3.7-2.5-5.8c-2.6-4.8-5.5-10.2-0.8-16.8c6.8-9.7,6.1-14.5,0.2-24l-0.7-1.2
						l1.4-0.1c5.5-0.6,12,2.4,14.8,10c1.4-5.9,0.9-13.3-1.7-25.1l-1.2-5.7l2.9,5c2.8,4.9,6.1,9,9.3,12.9
						c9.3,11.5,18.1,22.4,14.8,50.6L300.2,201.2z M265.4,199.5h33.2c2.9-26.9-5.5-37.4-14.5-48.5c-2.3-2.8-4.6-5.7-6.8-9
						c2.1,11.2,2,18.1-0.3,24l-1.1,2.8l-0.6-3c-1.6-8-7.2-11.5-12.2-11.6c5.2,8.8,6,14.5-1.1,24.6c-4,5.7-1.5,10.4,0.9,15
						C264,195.8,264.9,197.6,265.4,199.5z"/>
				</g>
			</g>
			<g>
				<rect x="304" y="257.1" class="st2" width="6.3" height="491"/>
				<rect x="290" y="257.1" class="st2" width="6.3" height="491"/>
			</g>
		</g>
	</g>
	<g id="Brasão">
		<path d="M104.6,626.6V252.1h390.9v374.5c-6.1,44-114.1,81.5-195.5,83.4C234.7,711.5,107.9,672.8,104.6,626.6z"/>
		<path class="st0" d="M119.5,623.4V267.3h361.1v356.2c-5.6,41.2-105.4,70.7-180.5,72.5C239.7,697.4,122.6,666.7,119.5,623.4z"/>
		<path class="st1" d="M136.1,620.9V284.4h328v336.5c-3,22.4-95.7,56.7-164,58.3C245.2,680.5,140.1,644.7,136.1,620.9z"/>
	</g>
	<g id="Sombra_Brasão">
		<path class="st3" d="M495.5,626.6c-5.2,37.5-84.1,70.2-157.7,80.3c-11.1,1.5-22.1,2.5-32.7,3c-1.7,0.1-3.4,0.1-5.1,0.2
			c-11.7,0.3-25.3-0.7-39.9-2.8c-66.9-9.7-152.9-42.6-155.6-80.6"/>
		<path d="M577.8,646.2l17.5-59.1l-3.4-3.7v-12c-32.6-36.9-63.8-45.3-107.5-37.9c-42.8,7.2-121.2,22.2-177.9,23.7
			c-68.7,1.8-140-23.5-199.4-24.1c-45.2-0.4-71.5,15.6-82.4,27c-8.9,9.3-21.4,22.8-12.5,43.4c1.7,30.5,11.9,39.1,14.9,48.1
			c1.4,28.5,20.9,43.4,38.1,48.7L33,782.3c56.6-6.6,156.9-43.5,212.6-77.6c-58.4-10.9-125.2-37.5-138.6-68.8
			c-30.3,1.7-42.8-6.2-51.8-14.3c6.1-7.2,22.5-15.9,47.9-12.7c29,3.6,63.8,11.5,103.2,17.7c30.8,4.9,64.4,8.7,100.3,8.7
			c28.1,0,61.7-3.8,93.5-8.7c32.3-5,62.8-11.3,84.1-16.2c40.9-9.5,58.6-5.1,68.8,8.8c-9.1,8.1-29,15.3-60.1,16.4
			c-13.4,29.6-70.9,55.2-130.7,67.2v0c48.8,36.3,136.7,68.9,217.5,77.8l-42-85.6C564.3,689,577.8,667.4,577.8,646.2z"/>
	</g>
	<g id="Águia_1_">
		<path class="st1" d="M35,339.1c10.5-12.6,100.4-28.8,130-21.7c0.1,1.7-3.4,1.5-2.3,3.5c1,1.9,2.9,0.4,4.2,0.1
			c9.9-1.8,19.3-0.7,28.3,3.7c2.7,1.3,2.9,1.4,3.7-1.4c0.5-1.8,1.6-0.9,2.4-0.7c5,0.9,10,1.9,15.4,3c-1.4,1.8-2.8,2.8-4.8,2.9
			c-8.2,0.6-16.1,2.2-24.5-1.1c-10.4-4.1-21.4-4-32.3-1.2c-2.1,0.5-4.3,1.1-6.3,0.2c-13.5-6.4-27.5-5-41.5-2.6
			c-2.2,0.4-6.8-0.6-6.2,2.8c0.5,2.8,4.3,0.2,6.4-0.2c12.2-2.5,24.4-1.3,36.1,1.8c4.8,1.3,8.5,1.4,13.1,0.4
			c11.9-2.8,23.5-1.2,34.8,2.9c2,0.7,3.8,1.9,6.1,1.4c13.3-2.7,25.7-0.5,37.3,7c-3.3-4.4-7.6-7.2-13.2-9.4c8.7-0.3,15,2.8,23.6,11.6
			c1-6.2-5.5-7.3-7.5-11.8c5.7,1.3,10.9,2.9,15.6,6.3c1.2,0.9,2,3.3,4.2,2.2c0.7-0.4,0.4-1.5-1.3-5c4.2,0.6,7,3.3,10.2,5.3
			c1,0.6,1.9,2.5,3.5,1.2c1.6-1.3-0.6-2.5-0.2-4c4.3,0.4,6.7,4.3,10.3,5.7c0.3,0.1,0.6,0.6,0.5,0.9c-0.8,2.9-1.9,6.1-4.5,7.4
			c-3.2,1.6-4.1,7.2-9.4,5.1c-17-6.7-34-7-51.7-1.6c-13.7,4.2-28,2.2-41.8-1.6c-17.8-4.9-35.4-10.9-53.5-14.8
			c-27-5.9-53.9-5.4-80.7,1.5C37.7,339.2,36.4,339.8,35,339.1z"/>
		<path class="st4" d="M197.9,381.3c-1.3-0.5-2.8-0.4-4.7-0.6c-5.3,0.9-10.8,2.3-15.6,5.9c-0.8,0.6-1.7,1.4-1.3,2.6
			c0.4,1.1,1.3,0.9,2.2,0.5c5.2-2.2,11.6,0.4,16.2-4.1c0.6-0.6,2-0.3,3.1-0.5c1.7-0.2,4.2,2.6,4.8-0.5
			C203,382.5,199.8,382.1,197.9,381.3z"/>
		<path class="st5" d="M291.2,435.4c1.1,0.3,2.1-0.3,2-1.7c-0.2-3.1-3.3-1.9-4.6-3.1c-1.5-0.2-2.4,0.6-2.2,1.7
			C286.9,434.7,289.3,434.9,291.2,435.4z"/>
		<path class="st5" d="M284.7,420.1c1.3,0.3,1.7-0.8,1.7-1.4c-0.5-3.2-2.3-4.1-4.6-4.2c-1.2-0.1-1.6,0.9-1.2,1.8
			C281.5,418,282.7,419.7,284.7,420.1z"/>
		<path class="st6" d="M208.6,342.3c-17-5.2-34-10.2-52.1-6.2c-2.3,0.5-4.6,0.1-6.6-1c-7.7-4.3-16.2-5.8-22.9-5.8
			c-6.8-0.5-11.5,0.2-16.3,0.7c-1.8,0.2-4.2,0.7-3.8,2.8c0.5,2.5,2.8,0.7,4.2,0.5c13-2.1,25.8-1.1,37.5,5c3.9,2,6.9,2.1,10.7,1.2
			c8.4-2,16.7-1.9,25.2-0.3c7.8,1.5,15.3,3.9,22.9,6.4c1.4,0.5,3.6,1.2,4.2-0.6C212.3,342.9,210.1,342.7,208.6,342.3z"/>
		<path class="st7" d="M225.8,340.9c-7.5-4.7-16-6-23.6-6.6c-2.1,0-3.2,0-4.2,0c-1.1,0-2.2,0.4-2.3,1.7c-0.2,1.6,1.2,2.4,2.3,2.2
			c9.7-1.1,18.3,2.4,27,5.8c1.2,0.5,2.6,0.9,3.1-0.7C228.6,341.7,226.8,341.5,225.8,340.9z"/>
		<path d="M562.2,316.8c-1-1.8-3.2-0.7-4.9-0.5c-11.8,2.1-23.7,3.3-35.7,1.7c-9-1.2-12.8-4-26.3-6.6c-3.2-2-8.9-3.3-13.2-5.4
			c-6.1-2.6-12.2-4.9-18.7-6.4c-8.3-3.5-17.1-5.6-25.9-7.4c-19.5-4-39.1-1.4-58.6-0.4c-5.6,0.3-11.2,1-16.8,2
			c-16.2,2.8-31.7,8.6-47.7,12c-14.6,3.1-25.2,11.3-30.7,25.6c-2.1,5.4-2.4,5.4-7.5,2c-9.9-6.5-20.6-9.9-32.5-9.4
			c-5.9,0.3-11.6-0.7-17.4-1.3c-7.3-0.8-14-3.5-21.1-5c-22.9-4.6-46.1-6.6-69.4-6.4c-7.1-0.6-14.1,0.3-21,2
			c-3.4,0.3-7.1-0.9-10.2,1.6c-6.5,2.9-13.6,2.7-20.4,4.2c-13.4,3-27,5.5-39.6,11c-12,5.2-23.6,11.6-35.6,17
			c-3.2,1.4-6.8,2.5-9.1,5.6c17.7,1.9,34.2-4.2,51.3-4.5c17.8-0.3,35.5-2.3,53.2,0.9c3.8,2.2,7.9,1.1,11.9,1
			c6.5-1,12.9-2.5,19.5-1.9c5.9-0.1,11.5,1.4,17.2,3c9.5,2.7,19,5.5,28.6,7.9c6.2,1.5,12.5,2.4,18.9,1.6c6.7-0.8,13.3-1.5,20-2.4
			c11-1.4,22.1-2.7,32.3,0.9c-9.2-0.5-19,1.7-28.9,1c-5.9-0.4-11.6,0.5-17.3,2.2c-11,3.2-22,6.7-32.8,10.5c-3.4,1.2-6.5,2.9-8.6,5.9
			c-2.4,3.2-5.4,5.5-9.2,6.8c-5.4,1.9-8.7,5.8-9.9,11.5c-0.4,1.8-1.8,5.3,0.3,6.7c1.9,1.3,3.8-1.2,5.4-2.5c1.8-1.5,3.7-2.7,6.1-3
			c4.7-0.6,5.9,0.9,4.1,5.2c-0.4,1-0.9,1.9-1.3,2.9c-0.5,1.4-0.9,2.7,0.4,3.9c1.3,1.2,2.7,0.8,3.9,0.1c2.8-1.6,5.7-2.7,8.8-3.6
			c11.8-3.6,23.9-2.6,35.8-1.8c8.9,0.6,18.5-0.9,26.5,5.3c0.5,0.4,1.4,0.5,2.1,0.4c4.7-0.3,7.1,2.3,8.2,6.6c2,7.2,7,11.2,14.2,12.6
			c1.2,0.2,2.4,0.7,3.6,0.9c6.5,0.8,9,5.5,10.8,11c0.8,2.5,0,3.4-2.5,2.8c-4.3-1.1-8.6-1.8-12.9-2.9c-3.1-0.8-5.9-0.3-8.3,2
			c-4.4,4.3-9.2,8.2-13.7,12.4c-10.7,10-21.5,19.9-32.4,29.7c-5.5,4.9-10.8,10.2-16.3,15.1c-3.7,3.4-2.9,5.5,2,6.9
			c0.8,0.2,1.7,0.4,2.6,0.6c21.1,4.5,42.1,9.3,63.2,13.7c3.2,0.7,5.2,2.1,6.8,5.1c4.4,8.6,12.3,11,20.4,6c3.9-2.4,7.3-2.5,11.5-1.7
			c22.3,4.5,44.6,9.3,67,13.7c4.1,0.8,7.5,0.7,10.1-3.3c12.9-19.4,26.5-38.3,39.6-57.7c1.9-2.8,1.6-5.1-0.3-7.7
			c-2.4-3.3-5.7-5.8-8-9.1c-3.2-4.5-7.6-5.9-12.8-6.2c-15.8-1.2-31.6-2.7-47.4-4.2c-2.7-0.3-4.4-1.3-4.8-4c-0.5-3.1,2.2-2.9,3.9-3
			c7.5-0.5,7.1-7,8.8-11.7c1.1-2.9-1.6-4.4-3.3-6.1c-2-2-2.4-4,1.1-4.1c13.6-0.5,27.2-1.5,39.8,5.4c3.9,2.1,7.8,4.1,11.9,5.9
			c1.7,0.8,3.8,2.2,5.3,0.2c1.7-2.1-0.2-4-1.4-5.6c-1.6-2.1-3.7-3.8-5.5-5.8c-0.8-0.9-2.1-1.7-1.7-3.4c1.7,0.2,2.7,1,3.3,2.1
			c3.5,6.5,9.4,10.5,15.4,14.2c2.8,1.8,4.7,4.1,6.1,7c4.5,9.3,10.8,17,20.5,21.3c3.2,1.4,6.7,3.5,8.4-2c0.4-1.3,1.7-0.9,2.8-0.9
			c1.1,0,2.2-0.1,2.6-1.3c0.5-1.5-0.5-2.5-1.5-3c-5.3-2.8-7.2-8-9.7-13.1c3.6,1.8,6.3,4.1,8.1,7.5c0.7,1.4,1.7,3.2,3.5,2.7
			c2-0.5,1.9-2.7,2.2-4.4c0.2-1.2,0-2.5-0.5-3.6c-2.5-5.8-4.6-11.8-10-15.9c-3-2.3-5.4-5.4-8.5-8c1.9-1.1,4.5-1,4.5-3.5
			c0-2-1.9-2.9-3.3-3.8c-3.9-2.5-7.9-4.7-11.8-7.1c-17.6-10.7-35.7-20-56.5-22.8c-2.3-0.3-4.7-0.6-6.2-2.6
			c-5.8-7.7-13.9-12.2-22.8-15.8c5.4-0.2,10.3,1.7,15.3,2.4c2,0.3,4,0.3,5.1-1.8c1-1.9,0.6-3.8-0.4-5.6c-0.8-1.7-2.2-2.7-4-3.3
			c-0.1-0.1-0.2-0.1-0.3-0.2c0,0.1,0,0.3,0,0.4c-12.1-7.2-25.2-4.8-38.2-4c3.2-7.3,6.6-7.3,13.5-6.6c9.1,1,17,5.1,24.7,9.6
			c0,0.2,0,0.3,0,0.5c0.2,0.1,0.4,0.2,0.6,0.3c4.6,2.5,9.8,2.8,14.8,3.3c3.1,0.3,4.6-1.4,4.5-4.5c0-1.2-0.2-2.5-0.4-3.7
			c-0.6-3.1,0.5-4.1,3.7-3.9c4.9,0.4,9.9,0.1,14.8,0.1c1.6,0,4.1,0.2,4.4-0.9c0.9-3,2.9-2.2,4.9-2.3c1.6-0.1,3.4-0.3,4-2
			c0.8-2.3-0.8-3.5-2.5-4.6c9.5,2.2,18.3-3,27.6-2.2c2,0.2,3.1-1.6,3-3.7c-0.1-1.7,0.3-2.6,2.3-2.4c7.1,0.7,14-1.6,21.1-0.9
			c6.4,1,12.8-3.7,19.3-0.2c4.5-0.4,8.9,2.4,13.4,0.1c11.7-0.6,23.5,0,35-3.5c10-3.1,20.3-5.3,29.1-11.4
			C560.9,319.6,563.6,319.1,562.2,316.8z M19.8,349c-3.2,1.3-6.5,1-11,0.9c2.9-1.4,4.6-2.3,6.7-2c17.1-4.5,34.2-9.1,52-10.8
			C51.9,342.6,36.3,347.6,19.8,349z M60.6,344.4c7.3-3.7,13.8-6.2,20.9-6.9C76.7,342,68.3,345,60.6,344.4z M75.3,344.4
			c6.5-4.4,13.5-7.2,21.4-7.1C89.7,340.5,82.9,343.6,75.3,344.4z M91.7,343.9c7-2.2,13.9-4.6,21.4-4.2
			C106.1,341.9,99.8,347.2,91.7,343.9z M109.4,345.1c5.7-2,11.2-6.3,18.4-1.6C121.3,344.9,115.4,345.5,109.4,345.1z M215,353.7
			c-13.7,4.2-28,2.2-41.8-1.6c-17.8-4.9-35.4-10.9-53.5-14.8c-27-5.9-53.9-5.4-80.7,1.5c-1.3,0.3-2.7,1-4.1,0.3
			c10.5-12.6,100.4-28.8,130-21.7c0.1,1.7-3.4,1.5-2.3,3.5c1,1.9,2.9,0.4,4.2,0.1c9.9-1.8,19.3-0.7,28.3,3.7
			c2.7,1.3,2.9,1.4,3.7-1.4c0.5-1.8,1.6-0.9,2.4-0.7c5,0.9,10,1.9,15.4,3c-1.4,1.8-2.8,2.8-4.8,2.9c-8.2,0.6-16.1,2.2-24.5-1.1
			c-10.4-4.1-21.4-4-32.3-1.2c-2.1,0.5-4.3,1.1-6.3,0.2c-13.5-6.4-27.5-5-41.5-2.6c-2.2,0.4-6.8-0.6-6.2,2.8
			c0.5,2.8,4.3,0.2,6.4-0.2c12.2-2.5,24.4-1.3,36.1,1.8c4.8,1.3,8.5,1.4,13.1,0.4c11.9-2.8,23.5-1.2,34.8,2.9c2,0.7,3.8,1.9,6.1,1.4
			c13.3-2.7,25.7-0.5,37.3,7c-3.3-4.4-7.6-7.2-13.2-9.4c8.7-0.3,15,2.8,23.6,11.6c1-6.2-5.5-7.3-7.5-11.8c5.7,1.3,10.9,2.9,15.6,6.3
			c1.2,0.9,2,3.3,4.2,2.2c0.7-0.4,0.4-1.5-1.3-5c4.2,0.6,7,3.3,10.2,5.3c1,0.6,1.9,2.5,3.5,1.2c1.6-1.3-0.6-2.5-0.2-4
			c4.3,0.4,6.7,4.3,10.3,5.7c0.3,0.1,0.6,0.6,0.5,0.9c-0.8,2.9-1.9,6.1-4.5,7.4c-3.2,1.6-4.1,7.2-9.4,5.1
			C249.7,348.6,232.7,348.3,215,353.7z M269,366.5c-2.1,1.3-3.6,1.9-5,0.1c-0.2-0.3-0.2-1.2,0-1.3
			C265.9,364.2,267.3,365.4,269,366.5z M151.6,395.5c6.6-9.4,16-9.4,24.3,0.4C167.2,397.6,159.5,389.5,151.6,395.5z M167.7,403.2
			c-0.1-0.4-0.3-0.9-0.4-1.3c4.3-0.7,8-4.8,14.4-1.6C176.2,401.5,171.9,402.3,167.7,403.2z M197.4,500.5c7.8-0.2,14.9,2.2,21.4,6.3
			C211.7,504.5,204.6,502.2,197.4,500.5z M224.1,505.9c6.2-1.5,17.6,1.8,22.7,6C239.7,509.8,232.8,506.9,224.1,505.9z M249.8,507.6
			c-10-7.5-21.9-8.6-33.6-10.6c-1.2-0.2-2.7-0.2-3.8-1.8c16.4-0.2,30.6,6.1,44.8,13.1C254.6,509.5,251.4,508.8,249.8,507.6z
			 M266.2,515.4c22.4,7.2,46,9.7,68.1,17.8C311.7,526.9,288,524.5,266.2,515.4z M297.7,516.3c8.3,0,15.9,2.5,23.3,6.1
			C313,521.1,305.5,518.3,297.7,516.3z M329,522.4c5.3-2.1,20.2,1.7,25.5,6.3C345.6,526.4,338.2,523.3,329,522.4z M340.1,531.3
			c6.6-1.4,12.9,0.1,19.1,2.2C352.8,533.4,346.5,531.9,340.1,531.3z M363.3,528.8c1.9-6.5,6.2-11.4,11.5-15.6
			C370.9,518.5,367.1,523.6,363.3,528.8z M369.1,529.3c-0.5-0.4-1-0.8-1.6-1.2c7.8-10.4,15.6-20.7,23.4-31.1c0.5,0.4,1,0.7,1.5,1.1
			C384.6,508.5,376.8,518.9,369.1,529.3z M406.6,482.6c-3.3,5.5-7.9,10.1-11.5,17.1C395.9,494,401,486.7,406.6,482.6z M400.5,473.4
			c-4.7,8.6-9.7,17-15.1,25.1c-0.4-0.3-0.8-0.6-1.2-1c5-8.3,10-16.6,15-24.9C399.6,472.9,400,473.2,400.5,473.4z M345,461.3
			c16.3,1.5,32.7,2.9,49,4.3c3.5,0.3,4.5,1.3,2.2,4.5c-11.5,16.5-23,33-34.2,49.7c-2.3,3.4-4.9,2.1-7.4,1.6
			c-20.4-4-40.8-8.2-61.2-12.3c-2.7-0.5-5.2-1.7-7.4,2.2c-1.5,2.8-5.6,3.7-9.1,2.1c-3.1-1.4-6.2-3.5-5.6-7.3c0.5-3.2-1.5-3-3.3-3.4
			c-19.8-4.4-39.6-8.8-60.4-13.4c7.2-6.7,13.8-12.7,20.4-18.8c8.3-7.6,16.7-15.2,24.9-23c2.1-1.9,3.9-2.4,6.6-1.7
			c5.3,1.4,10.6,2.6,16,3.7c2.6,0.5,2.7,1.4,1.6,3.5c-2.4,4.2-4,8.6-9.9,9.9c-3.7,0.8-6.6,3.8-11.1,3.9c-4.9,0.1-8.8,7.2-8,12.4
			c0.2,1.7,1.7,2.4,2.5,1.8c4.7-3.3,9.3,4.1,14,0.1c0.1-0.1,1.1,1,1.8,1.3c2,0.9,4.9,2,6,0.6c2.3-2.9,6.7-2.3,7.6-3.3
			c4.2-4.7,8.3-0.1,12.3-0.9c1.6-0.3,3.5,0.7,4.2-1.7c0.2-0.7,0.7-1.5,1.5-1.1c7.4,3.4,6.8-3.5,8.9-6.9c1-1.6,0.5-3.8,2.1-5.2
			c0.3,0.2,0.7,0.3,0.8,0.5c1,1.5,0.3,4.6,2.8,4.5c2.3-0.1,1.7-3.1,2.6-4.7c1.1-1.8,0-4.9,3.3-5.3c3.2-0.4,5.2,1.3,7.1,3.6
			c2.9,3.6,4.1,8.5,8.4,12c0.9-2.9-0.3-6.7,4-7c0.3,0,0.8-1.2,0.7-1.8C337.7,460.1,341.6,461,345,461.3z M302.8,468
			c0.6,3-1.2,3.1-3,3.2c-1.4,0.1-2.4-0.2-2.4-1.9c0-2.9,2.5-3.4,4.3-3.7C303.5,465.3,302.5,467.4,302.8,468z M322.1,444.4
			c4.2,4.3,12.2,5.3,12.1,13.4C330.3,453.2,326.4,448.7,322.1,444.4z M326.6,441.9c5.1,1.4,9.4,2.5,14.2,3.8
			C332.9,448.1,331.9,447.8,326.6,441.9z M299.5,417.4c2.5-0.7,4.2-1.2,5.1,0.1c7.8,11.8,19.6,16.7,32.7,19.7c2.9,0.6,5.1,2.2,7,6
			C325.4,440.4,311.6,431.2,299.5,417.4z M307.3,378.7c0.8-0.9,2,0,2.8,0.5c6.6,4.4,14,7.2,22.1,9.1c-6.9,3.4-12.5,0.8-17.8-2.4
			c-3.8-2.3-7.3-4.1-11.6-1.2c-1.3,0.9-2.9,0.2-5-0.4C301.1,381.6,305,381.5,307.3,378.7z M296.1,366.6c3.5-2.8,6.1-1.6,8.6-1.6
			C302.4,366.2,300.1,367.3,296.1,366.6z M311.6,405.8c2.9-1.3,5.3-2.1,7.5,0.1c6.2,6.2,13.5,11.2,19.9,17.1
			C325.9,423.5,319.4,414,311.6,405.8z M344.2,434.8c-14.8-1.7-25.6-6.4-31.6-13.6c1.9-0.8,2.9,0.9,4.1,1.7c4.8,3.2,10,5.3,15.7,5.1
			C337.6,427.9,340.7,430.8,344.2,434.8z M312.5,399.1c6.5-0.6,10.7,1.5,22.6,9.2l2.5,2c3.5,3.5,10.7,7.4,16.1,12.7
			C335.9,421.3,327.6,405.5,312.5,399.1z M339.6,409l-2.3-1.9c-4.1-3.3-12.6-7.8-14.9-9.2c1.7-1.8,3.7-1.4,5.7-0.8
			c6.9,1.8,13.2,4.8,18.5,9.7c5.3,4.9,10.6,9.8,16.6,15.3C353.5,419.5,346.4,415.1,339.6,409z M354.3,408.4
			c11.8-1.5,13.1,10,20.9,14.9C367.7,422.4,360.3,416.9,354.3,408.4z M349.8,402.9c23.2-4.2,42,5.5,61.2,13.4
			C391,411.9,370.7,408.9,349.8,402.9z M372.1,416.7c12.9,2.2,18.5,5.8,22.3,14.4C386.1,427.6,378.9,423.4,372.1,416.7z
			 M374.5,412.6c16.9,1.8,33,7.4,49.9,9.5C407,422.8,390.2,420.5,374.5,412.6z M405.4,425.8c9.9-1.1,11.7,0.5,12.8,11.7
			C413.1,433.8,408.2,431.2,405.4,425.8z M419,426.1c8.2,8.7,19,15.3,23.6,27.8C430.6,447.8,422.4,439,419,426.1z M428.6,449.1
			c9.3,2.4,12.9,9.8,16.7,17.1C438.8,461.5,431.5,457.7,428.6,449.1z M451.1,446.4c-8.9-5.7-18-11.1-25.3-19.1
			C431.8,424.5,445.8,434.8,451.1,446.4z M430.7,418.5c-0.2,0.4-0.5,0.9-0.7,1.3c-13.6-5.2-27.3-10.5-40.9-15.7
			c0.2-0.4,0.3-0.8,0.5-1.2C404.6,404.9,419,408,430.7,418.5z M374,394.4c6.2-0.2,11.3,2.6,15.6,4.2c-13.2,0-27.4-0.2-41.5,0.1
			c-4.2,0.1-7.5-1.5-10.7-3.5c-0.8-0.5-2.1-1-1.6-2.4c0.4-1.2,1.6-1.1,2.7-1.2c2.6-0.1,5.3-0.4,7.9,0.3
			C355.4,394.6,364.7,394.7,374,394.4z M362.1,389.1c-9.4-0.1-13.6-8.7-21-12.1C347.6,376.1,358.7,382.5,362.1,389.1z M345.5,362.2
			c5,1.3,10.8,1.6,15.6,7.3c-13.8-4.1-26-3.5-38.4,0.6c7.5,3.7,16.3,5,20.7,13.5c-3.5-0.8-6.9-1.6-9.4-4.5c-1.8-2.1-3.2-2.1-4.2,0.6
			c-1,2.7-3.1,2.6-5.2,1.8c-3.9-1.4-9.9-0.9-10.8-5.2c-0.7-3.1,4.3-5.8,7-8.4C327.9,361.2,336.5,359.8,345.5,362.2z M298.9,361.3
			c0-3.7,1.6-5.6,5.5-6.2c7.3-1,14.3-3.1,21.8-6.8C317.3,360,310.8,362.9,298.9,361.3z M306.3,352.1c-1.2,0.1-3.1,1.3-3.6-0.6
			c-0.5-1.7,0.2-3.5,1.9-4.5c3.2-1.9,6.7-3,10.4-3c3.8-0.1,7.6,0,11.4,0C319.6,346.6,313.6,351.2,306.3,352.1z M334.2,349.9
			c6.3-4.5,34.9,4.5,41,12.8C360.3,361.5,349.3,349.6,334.2,349.9z M350.6,346.6c8.7-1.5,21,3.8,23.4,9.9
			C365.8,353.6,358.6,349.2,350.6,346.6z M371.1,347.8c-20.5-5.6-41.3-9-62.6-6.2c-0.8,0.1-1.6,0.4-2.6,0.6c-0.3-4.6,1.8-7,5.8-8.3
			c8.2-2.7,16.5-3.1,25-3.1c12.2,0.1,23.6,2.1,34,9c6.6,4.4,14.3,6.8,21.7,9.9C385.2,349.9,378.1,349.7,371.1,347.8z M352.5,319.2
			c-9.2-1.6-17.7-1.4-26.3-0.8c-2.7,1.7-5.7,0.4-8.5,1.2c1.7-2.3,4.3-1.4,6.3-2.3c4.5-1,9-1.8,13.3-3.1
			C343.4,312.2,347.8,314.5,352.5,319.2z M350.9,312.8c9.4-5.8,12.6,3.1,18.6,7C361.5,320.8,356.5,316.3,350.9,312.8z M368.9,327.1
			c-19.7,0.1-39.4-0.7-59.2,3.6c0.7-4,2.3-6.4,5.6-7.2C333.4,319,351.4,319.1,368.9,327.1z M362.7,331.5c15.1-1,29.5,4.2,40.1,15.8
			C387.1,346.5,375.1,339.7,362.7,331.5z M375.5,325.1c14.9,1.6,28.6,6.3,40.3,15.9C400.1,341.5,387.8,333.3,375.5,325.1z
			 M412.8,334.6c-9.1-5.5-19.4-8.2-29.3-11.9c-4.9-1.8-9.7-3.9-14.5-7.3c16.4,0.2,57.1,14.1,65.5,22.7
			C426.4,338.8,419.3,338.5,412.8,334.6z M368.3,310.2c6.3-3.8,9.5-2.9,11.7,3.7C375.7,312.6,372.1,311.4,368.3,310.2z M411.6,323.1
			c-6.8-2.9-13.4-6.1-20.9-7.3c-3.6-0.6-7.1-2-7.9-6.7c10.3,2.9,20.2,6.4,30.8,6.7c7.9,0.2,15.1,2.9,22.5,5.4
			c5.5,1.9,8.6,6.2,13.8,10.6C435.1,332.8,423.3,328,411.6,323.1z M448.4,326.7c-11-10.8-24.9-14.1-39.6-14.9
			c-5.2-0.3-10.3-1-15.2-3.1c28-3.2,51.9,8.5,75.4,21.4C461.7,331,454.5,332.7,448.4,326.7z M476.3,328
			c-12.1-4.6-23.7-10.4-35.5-16.1c28.8,5.4,56.1,18.3,86.2,17.2C510,334.5,493.1,334.3,476.3,328z M529.8,325.5
			c-19.4,1.1-37.8-3.2-56.1-9c-15.4-4.9-30.9-9.8-47.1-11.7c-1.9-0.2-3.9-0.6-5.8-0.6c-34.5-1.6-68.3,2.5-101.7,11.1
			c-7.6,2-10.9,8.6-14.2,14.7c-3.5,6.7-5.3,14.2-7.6,21.4c-1.1,3.4-2.1,6.7-3.3,10c-3.8,10.2-11.5,16.1-21.5,19.5
			c-4.7,1.6-9.3,3.1-14,4.7c-0.9,0.3-2.4,0.3-2.2,1.7c0.2,1.6,1.6,1.6,2.9,1.3c1.9-0.4,3.9-0.6,5.6-1.4c7.9-3.2,16.1-3.8,24.4-2.7
			c2.2,0.3,4.5-0.5,4.9,3.1c0.2,2.5,3.7,0.4,4.8,2.5c-0.5,1.8-2.3,2.4-3.5,1.8c-4.4-2.1-9.3-0.4-13.8-2c-4.2-1.5-6.3,0.3-6.7,5.1
			c-2.7-0.4-3.9-3.5-7-3.8c-1.1,4.8,1.3,7.3,5.4,8.4c8.2,2.2,16.7,3,25.2,2.1c3.4-0.3,5.6,0.2,5.2,4.3c-0.1,0.7,0.2,1.4,0.3,2.1
			c0.5,2.1,4.6,4.5,1.8,5.8c-2.6,1.2-7,1.2-9.8-1.7c-1.4-1.4-2.7-2.8-4.2-4.1c-0.8-0.8-1.7-2.3-2.9-1c-1.1,1.2,0,2.1,0.9,3.1
			c5.2,6.1,10.4,12.3,16,18.9c-5.2-0.8-10.3,0.5-12.7-5.4c-0.4-1-1.7-3.3-3.6-1.1c-1.4,1.7,0,2.7,1.1,4c4.8,5.7,12.8,4.1,18.1,8.5
			c1.6,1.3,3.9,1.7,3.9,4.5c-3.6,0.7-6.3-1.6-9.3-3c-1.3-0.6-2.4-1.6-3.7-1.9c-1-0.2-2.7-0.8-3.2,0.9c-0.4,1.5,1.2,1.4,2,1.9
			c9.3,5.8,20.3,8.9,27.9,17.6c2.3,2.6,4.1,5.2,4.4,9.1c-8.7-8.8-18.7-15-28.9-21c-1.1-0.6-2.2-1.2-3.3-1.7c-1-0.5-2.2-0.5-2.9,0.4
			c-1,1.2,0.3,1.9,1.1,2.5c5.2,4,2.6,10.3,4.5,15.3c0.3,0.7-0.9,2.9-1.6,3c-5.9,1.4-5,6.4-5.8,10.5c-1.1-0.2-1.7-0.8-1.9-1.8
			c-0.4-1.6,0.6-4.3-1.7-4.3c-2.1,0-1.2,2.9-2.1,4.4c-0.4,0.6-0.4,1.3-0.8,2.3c-2.6-1.9-5.5-7.6-7.4,1.2c-2.4-3.9-2.9-5.9,1.5-7.2
			c5.5-1.6,8.4-6.7,7.7-12.4c-0.7-5.6-1.3-11.3,0.8-17.7c-3.3,1.5-3.5,3.7-3.5,5.9c0,3.5,0.1,7.1,0.3,10.6c0.4,5.3-2.1,8.8-6.8,10.6
			c-6.8,2.6-12.1,6.1-8.8,15.6c-4.8-3.2-3.5-7.7-5.2-11.4c-2.8,3-2.6,6.8-4.4,9.7c-1.8-0.6-2.4-1.9-2.6-3.6
			c-0.2-1.3,0.6-3.1-1.4-3.5c-1.8-0.3-2.2,1.4-2.9,2.6c-0.6,1-1.3,2-2.1,3.3c-1-5.4,1.1-8.6,5.6-8.5c6.4,0.1,11.3-3.9,16.5-6.3
			c3.4-1.6,5.2-7.2,6.9-11.4c3-7.2-6.4-23.7-14.2-24.9c-9.4-1.4-16.1-5.7-18.6-15.3c-1-4-3.1-6.2-7.6-5.1c-2.1,0.5-3.9-0.3-5.4-1.5
			c-4.4-3.4-9.4-4.2-14.9-4.1c-9.5,0.3-19-1-28.6-0.5c-5.6,0.3-10.7-1.5-13.7-7.1c-2-3.7-6.6-3.8-9.6-6.7c-2.9-2.9-1.8-4.1,0.1-5.6
			c5.3-4.4,11.8-4.9,18-3.2c6.4,1.7,12.5,1.7,18.4-0.4c8.2-2.8,16.4-1.7,24.6-1c2.5,0.2,4.9,1.6,7.9,1c-0.5,3.5-3.8,5.9-2,9.3
			c0.8,0.3,1.5,0.2,1.8-0.5c2.4-4.6,6.3-5.6,11.1-5.2c4.3,0.4,9.3,2.3,11.4-4.2c0.5-1.4,3.2-1,4.9-1.3c2.2-0.4,6.6,2.9,5.7-3.3
			c-0.2-1.1,1.7-0.7,2.7-0.8c1.7-0.2,3.6,0.6,5.1-0.8c0.9-0.8,2.1-1.7,1.9-3c-0.3-1.7-2-1-3.1-1.1c-1.9-0.1-3.9,0-6.9,0
			c4.3-6.2,6.6-12.7,13.2-16c3.3-1.7,4.9-4,5.1-8.2c0.6-13.1,11.9-27.7,25.2-31c16.6-4.1,32.8-10.3,49.8-12.1
			c22.9-2.5,45.9-6.5,69-2.7c13.1,2.1,25.8,5.8,38.1,10.8c22.9,9.3,46.4,15.7,71.4,14.4c3-0.2,5.9-0.5,8.8-0.8
			C544.5,324.2,537.2,325.1,529.8,325.5z"/>
		<path class="st1" d="M527,329.1c-17.1,5.4-33.9,5.2-50.7-1.1c-12.1-4.6-23.7-10.4-35.5-16.1C469.7,317.3,497,330.2,527,329.1z"/>
		<path class="st1" d="M113.1,339.7c-7.1,2.1-13.4,7.4-21.4,4.2C98.7,341.7,105.7,339.3,113.1,339.7z"/>
		<path class="st1" d="M127.8,343.5c-6.5,1.4-12.4,1.9-18.4,1.6C115.2,343.1,120.6,338.8,127.8,343.5z"/>
		<path class="st1" d="M542.2,321.1c-25,1.3-48.5-5.1-71.4-14.4c-2.5-1-5.1-1.9-7.6-2.9v9.3c3.5,1.1,7.1,2.2,10.6,3.3
			c18.2,5.8,36.7,10.1,56.1,9c7.4-0.4,14.6-1.4,21.2-5.2C548.1,320.6,545.2,320.9,542.2,321.1z"/>
		<path class="st1" d="M469,330c-7.2,1-14.5,2.7-20.6-3.3c-11-10.8-24.9-14.1-39.6-14.9c-5.2-0.3-10.3-1-15.2-3.1
			C421.6,305.5,445.4,317.1,469,330z"/>
	</g>
	<g id="Laço_1_">
		<path class="st1" d="M13.5,599.2c-5.6-8.8-0.7-22.1,4.7-28.8c29.2-36.9,77.2-39.3,136.2-30.5c45.5,6.8,96.5,21.2,154.1,19.7
			c20.2-0.5,43.2-3.4,64.2-6.1c24-3.1,45.4-6.1,58.3-8.2c10.1-1.6,25.5-4.6,43.5-8.1c40.1-7.6,78.5-7.2,115.2,34.9v8.7
			c-40-41.2-65.1-45.2-113.1-35.8c-5.6,1.1-14.3,2.6-20.1,3.6c-9.3,1.6-14.7,2-23.8,3.6c-40.3,7.1-82.1,13.5-124.4,14.3
			c-26.5,0.5-71.9-3.6-100.9-9.4c-20.7-4.1-49.7-10.1-79.5-12.7c-40.9-3.5-82.9,0.4-106.1,33.3C18.2,583,14.5,590.7,13.5,599.2z"/>
		<path d="M592.8,588l-15.3,49.3c-0.9-4.8-2.2-8.5-3.7-11.5c-11.8-23.4-32.6-36.2-59.9-32.7c-18.6,2.4-37.1,5.8-55.5,9.3
			c-14.8,2.8-29.5,6-44.3,8.8c-12.6,2.4-25.3,4.4-38,5.8c-5,0.9-8.9,1.3-13.9,1.9c-17.7,1.9-35.5,2.5-53.3,3
			c-19.6,0.6-39.1-0.6-58.6-2.4c-13.3-1.2-26.5-3.5-39.8-4.9c-4.2-0.5-8.2-2.3-12.5-2.1c-2.4-1.3-5.2-0.7-7.6-1.8
			c-9-1.5-18.1-2.7-27-4.6c-18.7-4.1-37.6-7-56.6-9.4c-16.4-2.1-32.4-1.1-47.5,5.9c-11,5.1-18.9,13.9-24.8,24.4
			c-2.4,4.3-5.1,9.5-6.9,17.8l-4.5-8.1c-16.1-31.3-7.9-55.7,20.4-76.9c14-9.6,30.3-12.3,47-14c19.8-2,39.4,0.7,59,2.9
			c23.5,2.7,46.3,8.4,69.5,12.5c20.2,3.6,40.6,6.6,61.3,7c16.4,0.3,32.8,1.2,49.2-0.1c17.9-1.4,35.7-3.4,53.6-5.7
			c19.5-2.5,38.9-6.3,58.3-9.3c13.7-2.1,27.4-4.5,41-7.2c25.8-5.3,50.8-4.5,74,9.5c11.5,6.9,20.5,15.8,30.3,26.2L592.8,588z"/>
		<path class="st8" d="M373.8,695.9c1.4,1.1,2.8,2.2,4.3,3.3c1.8-0.4,3.5-0.9,5.2-1.3c-1.7-1.3-3.4-2.5-4.9-3.8l47.9-19.7
			c3,2.1,6.2,3.9,9.3,5.6c0.9-0.4,1.8-0.8,2.6-1.2l0.6-6.3l8.8,1.8c18.9-9.6,33.7-20.7,41.6-32.6c0,0-0.1,0-0.1,0l2.4-4.2
			c0.1,0,0.1,0,0.2,0c1.9-3.6,3.1-7.2,3.6-10.9c-0.5,3.7-1.8,7.3-3.6,10.9c9.9-0.3,22.7-0.7,31.8-3c10.8-2.7,21.6-6.2,31.4-12.9
			l2.1,3c-7.8,4.6-16.9,9.8-31.3,13.3c-8.2,2-23.5,4-36.5,3.8c-7.9,11.9-22.7,22.9-41.6,32.6l0,0c40.2,12.6,58,13.4,75.2,11.9
			c31.7-2.7,42.9-20.6,43.6-38c0.6-14.1-6.3-26.1-13.6-33.3c-21-20.9-56.2-7.9-73.6-5.1c-5.6,0.9-17.4,3.4-23.2,4.4
			c-9.3,1.6-11.9,2.9-21.1,4.5c-40.3,7.1-81.9,13.6-124.2,14.5c-26.5,0.5-72.6-4-101.9-8.5c-21.5-3.3-48.6-8.3-78.7-13.7
			c-24.7-4.5-46.4-7.9-63.4,0.2c-10.1,4.8-20.3,12.8-27.5,31.1c-1.7,4.2-9.8,52.2,59.1,48.9c16.8-0.8,38.6-3,65.8-11
			c-0.7-0.3-1.3-0.6-2-0.9c-31.2,7.5-93.4,19.1-112.6-3.1c-9.5-11-15.8-31.3,0-48.4c21.5,16.4,37.2,17.2,61.1,15.1
			c-0.3-0.5-0.6-1-0.9-1.5c-11.1,0.8-20.6,0.9-28.5-0.7c-12.4-2.5-19.5-6.1-30.5-14.5l2.4-2.8c13.5,9.2,21.8,12,31.1,13.2
			c6.7,0.8,15.8,1.1,23,0.4c-1.6-3.4-2.7-6.9-2.9-10.5c0.3,3.5,1.3,7,2.9,10.5c0.1,0,0.2,0,0.2,0l2.4,4.4c-0.1,0-0.1,0-0.2,0
			c0.3,0.5,0.6,1,0.9,1.5c0.2,0,0.3,0,0.5,0c9.4,13.7,28.1,25.8,51.5,36.3c-0.2,0-0.4,0.1-0.6,0.1c0.7,0.3,1.3,0.6,2,0.9
			c0.2,0,0.3-0.1,0.5-0.1l10.6-4.6l3.9,10.7c-0.1,0-0.2,0.1-0.3,0.1c0.9,0.3,1.8,0.7,2.7,1c0.2-0.1,0.5-0.2,0.7-0.3l39.5,12.2
			c-0.2,0.1-0.3,0.2-0.5,0.3c2.5,0.6,5.1,1.2,7.6,1.8c0.2-0.2,0.5-0.3,0.7-0.5l4.7,1.3c-0.1,0.1-0.3,0.2-0.4,0.3
			c24.1,5.3,47.6,8.1,66.1,7.6c22-0.5,45.9-3.7,69.2-8.8c-1.1-0.8-2.3-1.5-3.4-2.3L373.8,695.9z M548.5,675.4
			c-28.8,16.4-72.9,5.1-98-2.6c17.2-7.3,30-16.8,37.6-29.4c28.8,0.1,46-2.6,69.7-17.1C570.9,644.8,561.1,668.2,548.5,675.4z"/>
		<path class="st1" d="M98.5,691.2c-68.9,3.3-60.7-44.7-59.1-48.9c7.2-18.3,17.3-26.3,27.5-31.1c17-8.1,38.6-4.6,63.4-0.2
			c30.1,5.4,57.1,10.4,78.7,13.7c29.3,4.5,75.4,9.1,101.9,8.5c42.3-0.9,83.9-7.4,124.2-14.5c9.1-1.6,11.8-2.9,21.1-4.5
			c5.8-1,17.6-3.5,23.2-4.4c17.4-2.8,52.6-15.9,73.6,5.1c7.3,7.3,14.2,19.3,13.6,33.3c-0.7,17.5-11.9,35.3-43.6,38
			c-17.2,1.5-35,0.7-75.2-11.9l0,0c-3.1,1.6-6.2,3.1-9.5,4.6l0,0c24.3,12.7,55.5,15.8,75.4,16.1c48,0.9,64-27.7,61.4-55
			c-1.2-12.6-8.5-23.2-18.2-32.4c-23.4-22.3-64.2-8.9-76.9-6.5c-18.1,3.4-36.1,7.4-46.2,9c-12.9,2.1-34.8,6.8-58.8,9.9
			c-21,2.7-44,4-64.2,4.5c-57.7,1.5-108.8-10.4-154.2-18.2c-37.5-6.4-71.1-14.2-94.6-2.9c-6.4,3.1-23,11.9-31.4,38.4
			c-2.1,6.7-4.3,40.7,28.8,54.2c9.7,4,22.6,5.7,39.2,5.1c20.3-0.7,46.8-4.3,80.4-15.1c-5-1.9-9.9-3.9-14.7-6
			C137.1,688.2,115.4,690.3,98.5,691.2z"/>
		<path d="M566.3,761.9l-32.8-65.2c-25.3,0.9-63.9,1.9-97.8-16.7c-15.8,7-33.7,13.1-52.3,17.9C425.9,728.9,528.5,756.8,566.3,761.9z
			"/>
		<path class="st0" d="M568.8,767c-19.9-0.3-138.2-30-190.7-67.9c-2.9,0.7-5.9,1.4-8.8,2c70.9,48.6,161.7,67.3,203.3,73.5L568.8,767
			z"/>
		<path d="M69.9,702.3l-24.6,61.6c46.5-6.2,129.9-36.9,176.1-64.5c-13.5-3.4-27-7.5-39.7-12.2C145.5,701.5,95.4,706.4,69.9,702.3z"
			/>
		<path class="st0" d="M43.8,769l-3.3,7.5c41.1-6.3,120-28.5,193.5-74.2c-1.7-0.4-3.3-0.8-5-1.1C179.3,733.1,73.4,769,43.8,769z"/>
		<path class="st1" d="M557.2,624.5l-2.1-3c-9.8,6.7-20.6,10.2-31.4,12.9c-9.1,2.3-21.9,2.7-31.8,3c-0.7,1.4-1.6,2.8-2.5,4.2
			c13,0.2,28.3-1.8,36.5-3.8C540.3,634.3,549.4,629.1,557.2,624.5z"/>
		<path class="st1" d="M84.6,636.7c-9.3-1.2-17.6-4-31.1-13.2l-2.4,2.8c10.9,8.3,18.1,12,30.5,14.5c7.9,1.6,17.4,1.5,28.5,0.7
			c-0.9-1.5-1.8-2.9-2.5-4.4C100.4,637.8,91.2,637.5,84.6,636.7z"/>
		<path class="st9" d="M110.9,642.9c-23.9,2.1-39.7,1.3-61.1-15.1c-15.8,17.1-9.5,37.4,0,48.4c19.2,22.1,81.4,10.6,112.6,3.1
			C139.2,668.9,120.3,656.4,110.9,642.9z"/>
		<path class="st9" d="M557.9,626.3c-23.7,14.5-40.9,17.2-69.7,17.1c0,0,0,0,0,0c-7.8,10.6-21,20.5-37.6,29.3c0,0,0,0,0,0
			c25.1,7.7,69.1,19,98,2.6C561.1,668.2,570.9,644.8,557.9,626.3z"/>
	</g>
	<g>
		<path class="st1" d="M18.1,602.2l3.3-3l8.1,8.9c1.3,1.4,2.1,2.3,2.6,2.6c0.8,0.5,1.6,0.8,2.5,0.7c0.9-0.1,1.8-0.5,2.7-1.4
			c0.9-0.9,1.5-1.7,1.6-2.5c0.1-0.8,0-1.5-0.4-2.2c-0.4-0.6-1.2-1.6-2.4-2.9l-8.2-9.1l3.3-3l7.8,8.6c1.8,2,3,3.4,3.5,4.4
			c0.6,1,0.9,2,0.9,3c0,1-0.2,2-0.7,3.1c-0.5,1.1-1.4,2.2-2.7,3.4c-1.6,1.4-2.9,2.3-4.1,2.7c-1.1,0.4-2.2,0.5-3.2,0.3
			c-1-0.2-1.9-0.5-2.6-1c-1.1-0.7-2.4-2-4.1-3.9L18.1,602.2z"/>
		<path class="st1" d="M50.2,604.1l-10.7-19.3l3.8-2.1l15.1,8.5l-7.2-12.9l3.6-2l10.7,19.3l-3.9,2.2l-14.8-8.3l7,12.6L50.2,604.1z"
			/>
		<path class="st1" d="M70,593.6l-7-21l4.2-1.4l7,21L70,593.6z"/>
		<path class="st1" d="M84.6,589.4l-12.5-19.9l4.7-1l9,14.8l1.8-17.2l4.6-1l-3,23.3L84.6,589.4z"/>
		<path class="st1" d="M99.7,586.3l-1-22.1l16.4-0.7l0.2,3.7l-11.9,0.5l0.2,4.9l11.1-0.5l0.2,3.7l-11.1,0.5l0.3,6l12.4-0.5l0.2,3.7
			L99.7,586.3z"/>
		<path class="st1" d="M121.1,586.3l1.1-22.1l9.4,0.5c2.4,0.1,4.1,0.4,5.1,0.9c1.1,0.5,1.9,1.2,2.5,2.2c0.6,1,0.9,2.2,0.8,3.5
			c-0.1,1.7-0.6,3-1.7,4c-1,1-2.5,1.6-4.5,1.8c0.9,0.6,1.7,1.3,2.3,2c0.6,0.7,1.4,1.9,2.4,3.7l2.5,4.4l-5.3-0.3l-3-5
			c-1.1-1.8-1.8-2.9-2.2-3.4c-0.4-0.5-0.8-0.8-1.3-1c-0.5-0.2-1.2-0.3-2.2-0.4l-0.9,0l-0.5,9.2L121.1,586.3z M126.2,573.8l3.3,0.2
			c2.1,0.1,3.5,0.1,4-0.1c0.5-0.2,1-0.4,1.3-0.9c0.3-0.4,0.5-1,0.5-1.6c0-0.7-0.1-1.4-0.5-1.8c-0.4-0.5-0.9-0.8-1.6-1
			c-0.4-0.1-1.4-0.1-3.3-0.2l-3.5-0.2L126.2,573.8z"/>
		<path class="st1" d="M144.1,580.3l4.4,0.3c0,1.5,0.4,2.6,1.1,3.4c0.7,0.8,1.7,1.3,3,1.5c1.4,0.2,2.5,0.1,3.4-0.4
			c0.8-0.5,1.3-1.1,1.4-1.9c0.1-0.5,0-1-0.2-1.4c-0.2-0.4-0.7-0.8-1.4-1.2c-0.5-0.3-1.6-0.8-3.4-1.5c-2.3-1-3.8-2-4.6-3
			c-1.1-1.4-1.6-3-1.3-4.7c0.2-1.1,0.7-2.1,1.5-3c0.8-0.9,1.8-1.5,3.1-1.8c1.3-0.3,2.7-0.3,4.4-0.1c2.7,0.4,4.7,1.4,5.9,2.8
			c1.2,1.4,1.7,3.2,1.4,5.2l-4.4-0.5c0-1.2-0.3-2-0.8-2.6c-0.5-0.6-1.4-1-2.7-1.2c-1.3-0.2-2.3-0.1-3.1,0.3
			c-0.5,0.3-0.8,0.7-0.9,1.2c-0.1,0.5,0.1,1,0.4,1.4c0.5,0.6,1.8,1.3,3.8,2.1c2.1,0.9,3.6,1.6,4.5,2.4c0.9,0.7,1.6,1.6,2.1,2.6
			c0.4,1,0.5,2.2,0.3,3.6c-0.2,1.3-0.7,2.4-1.6,3.3c-0.9,1-2,1.6-3.3,2c-1.4,0.3-3,0.3-4.9,0c-2.8-0.5-4.8-1.4-6-3
			C144.6,584.8,144,582.8,144.1,580.3z"/>
		<path class="st1" d="M165.3,591.4l4.3-21.7l4.4,0.9l-4.3,21.7L165.3,591.4z"/>
		<path class="st1" d="M179,571.6l8.1,1.3c1.8,0.3,3.2,0.7,4.1,1.1c1.2,0.6,2.2,1.4,3,2.5c0.8,1.1,1.3,2.4,1.5,3.9s0.2,3.2-0.1,5.3
			c-0.3,1.8-0.8,3.3-1.4,4.5c-0.8,1.5-1.8,2.7-3,3.5c-0.9,0.6-2,1-3.4,1.3c-1,0.2-2.3,0.1-4-0.2l-8.3-1.3L179,571.6z M182.9,576
			l-2.3,14.5l3.3,0.5c1.2,0.2,2.1,0.3,2.7,0.2c0.7-0.1,1.4-0.3,1.9-0.6c0.5-0.4,1-1,1.5-1.9c0.5-0.9,0.8-2.2,1.1-3.9
			c0.3-1.7,0.3-3,0.2-4c-0.2-1-0.5-1.7-0.9-2.3c-0.5-0.6-1.1-1-1.9-1.4c-0.6-0.2-1.8-0.5-3.6-0.8L182.9,576z"/>
		<path class="st1" d="M218.2,601.1l-4.8-1l-0.9-5.3l-8.7-1.8l-2.8,4.6l-4.6-1l12.9-20l4.6,0.9L218.2,601.1z M211.9,590.9l-1.3-8.7
			l-4.6,7.4L211.9,590.9z"/>
		<path class="st1" d="M227,580.1l7.9,1.9c1.8,0.4,3.1,0.9,4,1.4c1.2,0.7,2.1,1.6,2.8,2.8c0.7,1.2,1.1,2.5,1.2,4
			c0.1,1.5,0,3.2-0.5,5.3c-0.4,1.8-1,3.2-1.8,4.4c-0.9,1.4-2,2.5-3.2,3.2c-0.9,0.6-2.1,0.9-3.5,1c-1,0.1-2.4-0.1-4-0.5l-8.2-2
			L227,580.1z M230.4,584.8L227,599l3.2,0.8c1.2,0.3,2.1,0.4,2.7,0.4c0.7,0,1.4-0.2,2-0.5c0.6-0.3,1.1-0.9,1.6-1.8
			c0.5-0.9,1-2.2,1.4-3.8c0.4-1.7,0.6-3,0.5-3.9c-0.1-1-0.3-1.8-0.7-2.4c-0.4-0.6-1-1.1-1.8-1.5c-0.6-0.3-1.7-0.6-3.5-1.1
			L230.4,584.8z"/>
		<path class="st1" d="M245.7,607.7l3.5-21.9l16.2,2.6l-0.6,3.7l-11.8-1.9l-0.8,4.8l11,1.7l-0.6,3.7l-11-1.7l-0.9,5.9l12.2,1.9
			l-0.6,3.7L245.7,607.7z"/>
		<path class="st1" d="M278,610.6l1.1-22.1l15.2,0.7l-0.2,3.7l-10.7-0.5l-0.3,5.2l9.2,0.5l-0.2,3.7l-9.2-0.5l-0.5,9.4L278,610.6z"/>
		<path class="st1" d="M297.7,611.6l0-22.1l16.4,0v3.7l-11.9,0v4.9l11.1,0l0,3.7l-11.1,0v6l12.4,0v3.7L297.7,611.6z"/>
		<path class="st1" d="M317.7,589.2l8.1-0.9c1.8-0.2,3.2-0.2,4.2,0c1.3,0.2,2.5,0.8,3.5,1.7c1,0.9,1.9,2,2.5,3.3
			c0.6,1.4,1.1,3.1,1.3,5.1c0.2,1.8,0.2,3.4-0.2,4.8c-0.4,1.7-1,3-1.9,4.1c-0.7,0.8-1.7,1.5-2.9,2.1c-0.9,0.4-2.2,0.7-3.9,0.9
			l-8.4,0.9L317.7,589.2z M322.6,592.4l1.6,14.6l3.3-0.4c1.2-0.1,2.1-0.3,2.7-0.5c0.7-0.3,1.3-0.6,1.7-1.1c0.4-0.5,0.7-1.2,0.9-2.3
			c0.2-1,0.2-2.4,0-4.1c-0.2-1.7-0.5-3-0.9-3.9c-0.4-0.9-0.9-1.5-1.5-2c-0.6-0.5-1.3-0.7-2.2-0.8c-0.6-0.1-1.9,0-3.7,0.2
			L322.6,592.4z"/>
		<path class="st1" d="M342.9,608.4l-2.8-22l16.3-2.1l0.5,3.7l-11.8,1.5l0.6,4.9l11-1.4l0.5,3.7l-11,1.4l0.8,6l12.3-1.6l0.5,3.7
			L342.9,608.4z"/>
		<path class="st1" d="M363.5,606.5l-1.9-22l9.4-0.8c2.4-0.2,4.1-0.2,5.2,0.1c1.1,0.3,2,0.9,2.7,1.9c0.7,1,1.2,2.1,1.3,3.4
			c0.1,1.7-0.2,3.1-1.1,4.2c-0.9,1.2-2.3,2-4.2,2.4c1,0.5,1.9,1,2.5,1.6c0.7,0.6,1.6,1.7,2.8,3.4l3.1,4.1l-5.3,0.5l-3.6-4.5
			c-1.3-1.6-2.2-2.6-2.6-3c-0.5-0.4-0.9-0.7-1.4-0.8c-0.5-0.1-1.2-0.1-2.3-0.1l-0.9,0.1l0.8,9.2L363.5,606.5z M366.9,593.4l3.3-0.3
			c2.1-0.2,3.5-0.4,4-0.6c0.5-0.2,0.9-0.6,1.2-1c0.3-0.5,0.4-1,0.3-1.7c-0.1-0.7-0.3-1.3-0.8-1.7c-0.4-0.4-1-0.7-1.8-0.7
			c-0.4,0-1.5,0-3.3,0.2l-3.5,0.3L366.9,593.4z"/>
		<path class="st1" d="M406.5,600.8l-4.8,0.7l-2.7-4.7l-8.7,1.4l-1,5.2l-4.7,0.7l5.1-23.2l4.7-0.7L406.5,600.8z M397,593.4l-4.3-7.6
			l-1.7,8.6L397,593.4z"/>
		<path class="st1" d="M409.9,600.2l-4.6-21.5l4.4-0.9l3.8,17.8l10.9-2.3l0.8,3.6L409.9,600.2z"/>
		<path class="st1" d="M433.8,572.4l8-1.4c1.8-0.3,3.2-0.4,4.2-0.3c1.3,0.2,2.6,0.6,3.6,1.4c1.1,0.8,2,1.9,2.7,3.2
			c0.7,1.3,1.3,3,1.6,5c0.3,1.8,0.4,3.4,0.1,4.8c-0.3,1.7-0.8,3.1-1.7,4.3c-0.6,0.9-1.6,1.6-2.8,2.3c-0.9,0.5-2.2,0.9-3.8,1.1
			l-8.3,1.4L433.8,572.4z M438.9,575.4l2.5,14.4l3.3-0.6c1.2-0.2,2.1-0.4,2.6-0.7c0.7-0.3,1.2-0.7,1.6-1.2c0.4-0.5,0.7-1.3,0.8-2.3
			c0.1-1,0.1-2.4-0.2-4.1c-0.3-1.7-0.7-3-1.1-3.8c-0.5-0.9-1-1.5-1.6-1.9c-0.6-0.4-1.4-0.6-2.2-0.7c-0.6,0-1.9,0.1-3.7,0.4
			L438.9,575.4z"/>
		<path class="st1" d="M458.6,579.8c-0.2-2.2-0.1-4.2,0.4-5.8c0.4-1.2,1-2.3,1.7-3.2c0.8-1,1.6-1.7,2.6-2.3c1.3-0.7,2.9-1.2,4.6-1.4
			c3.2-0.3,5.9,0.4,8.1,2.2c2.2,1.8,3.4,4.5,3.8,8.1c0.4,3.6-0.3,6.4-2,8.7c-1.7,2.2-4.2,3.5-7.4,3.8c-3.3,0.4-6-0.4-8.1-2.2
			C460.3,586,459,583.3,458.6,579.8z M463.2,579.2c0.3,2.5,1,4.3,2.3,5.5c1.3,1.2,2.8,1.6,4.6,1.5c1.8-0.2,3.2-1,4.2-2.4
			c1-1.4,1.4-3.4,1.1-5.9c-0.3-2.5-1-4.3-2.3-5.5c-1.2-1.1-2.8-1.6-4.6-1.4c-1.8,0.2-3.2,1-4.2,2.4
			C463.3,574.7,462.9,576.7,463.2,579.2z"/>
		<path class="st1" d="M495.3,586.7l-1.2-22.1l7.2-0.4c2.7-0.2,4.5-0.1,5.3,0c1.3,0.3,2.4,0.9,3.3,2c0.9,1.1,1.4,2.5,1.5,4.2
			c0.1,1.4-0.1,2.5-0.6,3.5c-0.4,1-1,1.7-1.8,2.3c-0.7,0.6-1.5,1-2.3,1.2c-1.1,0.3-2.6,0.5-4.6,0.6l-2.9,0.2l0.5,8.3L495.3,586.7z
			 M498.8,568.1l0.3,6.3l2.4-0.1c1.8-0.1,2.9-0.3,3.5-0.5c0.6-0.3,1-0.7,1.3-1.2c0.3-0.5,0.4-1.1,0.4-1.7c0-0.8-0.3-1.5-0.8-2
			c-0.5-0.5-1.1-0.8-1.8-0.9c-0.5-0.1-1.6-0.1-3.2,0L498.8,568.1z"/>
		<path class="st1" d="M534.4,587.3l-4.8-0.4l-1.5-5.2l-8.8-0.8l-2.2,4.9l-4.7-0.4l10.5-21.3l4.7,0.4L534.4,587.3z M527,577.9
			l-2.3-8.4l-3.7,7.9L527,577.9z"/>
		<path class="st1" d="M537,587.7l8-20.6l8.8,3.4c2.2,0.9,3.7,1.7,4.6,2.4c0.9,0.8,1.4,1.7,1.6,2.9c0.2,1.2,0.1,2.4-0.4,3.6
			c-0.6,1.5-1.6,2.7-2.9,3.3c-1.3,0.7-2.9,0.8-4.8,0.3c0.7,0.9,1.2,1.7,1.6,2.6c0.3,0.9,0.7,2.3,1.1,4.3l1,5l-5-1.9l-1.3-5.7
			c-0.4-2-0.8-3.3-1-3.9c-0.2-0.6-0.5-1-0.9-1.3c-0.4-0.3-1.1-0.7-2-1l-0.8-0.3l-3.3,8.6L537,587.7z M545.8,577.4l3.1,1.2
			c2,0.8,3.3,1.2,3.8,1.2c0.6,0,1.1-0.1,1.5-0.4c0.4-0.3,0.8-0.8,1-1.4c0.3-0.7,0.3-1.3,0.1-1.9c-0.2-0.6-0.6-1-1.3-1.4
			c-0.3-0.2-1.3-0.6-3-1.3l-3.3-1.3L545.8,577.4z"/>
		<path class="st1" d="M572.4,610.3l-3.6-3.3l2-5l-6.5-6l-4.7,2.5l-3.5-3.2l21.3-10.5l3.5,3.2L572.4,610.3z M572.3,598.3l3.3-8.1
			l-7.8,4L572.3,598.3z M578.1,583.7l4.6-1.9l3.5,3.2l-6.1,0.5L578.1,583.7z"/>
	</g>
</g>
</svg>
