<?xml version="1.0" encoding="utf-8"?>
<!-- Generator: Adobe Illustrator 23.0.0, SVG Export Plug-In . SVG Version: 6.00 Build 0)  -->
<svg version="1.1" id="Laço_e_texto" xmlns="http://www.w3.org/2000/svg" xmlns:xlink="http://www.w3.org/1999/xlink" x="0px"
	 y="0px" viewBox="0 0 85 113.4" style="enable-background:new 0 0 85 113.4;" xml:space="preserve">
<style type="text/css">
	.st0{fill:#2B250F;}
	.st1{fill:#D8251C;}
	.st2{fill:#FCF306;}
	.st3{fill:#FFF400;}
	.st4{fill:#0094E3;}
	.st5{fill:#280F73;}
	.st6{fill:#FFFFFF;}
	.st7{display:none;fill:none;stroke:#000000;stroke-width:0.1578;stroke-miterlimit:10;}
	.st8{fill:#272322;}
	.st9{fill:#1F1B18;}
	.st10{fill:#24221F;}
	.st11{fill:#2B2926;}
	.st12{display:none;fill:none;}
</style>
<g>
	<g id="Tocha">
		<g id="Tocha_1_">
			<path class="st0" d="M51.4,10.4c-0.5,0.5-1.9,2.3-2.9,1.2c-0.9-5.3-4.2-2.8-6.2-8.9c0,1.9-1.3,5.7-2.1,6.6
				c-1.5,1.9-2.8,3.1-3,6.3c-0.7-0.7-2.5-1.9-3.2-1.9c3.1,4.7-0.1,7.2,1.5,11.6h-0.6V27h1.9v1.9H36v1.8h1.6v2h2.9v71.6h-1v1.6h0.7
				v3.3h-0.5v1.6H46v-1.6h-0.5v-3.3h0.7v-1.6h-1V32.6h2.9v-2h1.6v-1.8H49V27h1.9v-1.8h-0.6C50.5,19.3,53,21.4,51.4,10.4z"/>
		</g>
		<g>
			<path class="st1" d="M50.7,12.2c-0.5,0.5-1.9,1.5-3,0c-0.9-4.8-3.9-3.9-5.1-6.7c0,1.7-1.4,4.5-2.2,5.3c-1.5,1.5-2.4,3.8-2.6,6.6
				c-0.6-0.6-1.6-1.9-2.2-1.9c2.3,4.3-0.3,5.8,1,9.7h12.6C49.5,20,51.9,20.6,50.7,12.2z"/>
			<g id="Amarelo">
				<rect x="37.9" y="31" class="st2" width="9.9" height="1.2"/>
				<rect x="36.4" y="29.2" class="st2" width="13" height="1.1"/>
				<rect x="37.1" y="27.2" class="st2" width="11.6" height="1.3"/>
				<rect x="40.2" y="109.4" class="st2" width="5.4" height="1"/>
				<rect x="40.6" y="106.4" class="st2" width="4.6" height="2.1"/>
				<polygon class="st2" points="44.9,104.5 44.9,32.6 40.9,32.6 40.9,104.5 39.9,104.5 39.9,105.5 45.8,105.5 45.8,104.5 				"/>
				<g>
					<path class="st3" d="M50.3,13.2c0,6.5-0.8,7.9-1.1,11.3c-0.4,0-0.8,0-0.8,0C48.5,23.2,44.7,22.1,50.3,13.2z"/>
					<path d="M49.3,24.6h-1l0-0.1c0-0.2-0.1-0.5-0.3-0.9c-0.8-1.2-2.2-3.5,2.3-10.5l0.2-0.4v0.4c0,4.5-0.4,6.6-0.7,8.5
						c-0.2,0.9-0.3,1.7-0.4,2.7L49.3,24.6z M48.5,24.4h0.5c0.1-1,0.3-1.8,0.4-2.6c0.3-1.9,0.7-3.8,0.7-8c-4.1,6.5-2.8,8.7-2,9.8
						C48.3,23.8,48.5,24.1,48.5,24.4z"/>
				</g>
				<g>
					<path class="st3" d="M43.1,8.3c0.9-0.4,2.5,4.7,2.4,7.2c0.4-0.6,1-0.7,1.7-3.3c0.5,8.4-1.6,9.4-2.5,12.9h-2.2
						c-0.1-0.9,0.2-2.1,0.9-3.5C45.3,18.1,42.2,13.9,43.1,8.3z"/>
					<path d="M44.9,25.3h-2.4l0-0.1c-0.1-1,0.2-2.3,0.9-3.6c1-1.8,0.6-3.9,0.1-6.2c-0.4-2.1-0.9-4.4-0.4-7.1l0-0.1l0.1,0
						c0.1,0,0.2-0.1,0.4,0.1c0.9,0.6,2.1,4.6,2.1,6.9c0,0,0.1-0.1,0.1-0.1c0.4-0.4,0.8-0.9,1.4-2.8l0.2-0.7l0,0.7
						c0.3,6-0.7,8.3-1.5,10.3C45.5,23.4,45.1,24.2,44.9,25.3L44.9,25.3z M42.6,25.1h2c0.2-1,0.6-1.7,0.9-2.5
						c0.8-1.9,1.8-4.1,1.5-9.5c-0.5,1.4-0.9,1.9-1.2,2.2c-0.1,0.1-0.2,0.3-0.3,0.4l-0.3,0.4l0-0.5c0.1-2.3-1.2-6.5-2-7.1
						c-0.1,0-0.1-0.1-0.1-0.1c-0.4,2.5,0.1,4.8,0.5,6.9c0.5,2.4,0.9,4.5-0.1,6.4C42.9,22.9,42.6,24.1,42.6,25.1z"/>
				</g>
				<g>
					<path class="st3" d="M37.4,18.5c0.9-0.1,1.8,0.5,2.1,1.8c0.4-0.9,0.3-2.1-0.1-4.1c1.5,2.7,4,3.6,3.4,9h-5
						c-0.2-0.9-1.4-1.8-0.5-3.1C38.3,20.6,38.2,19.9,37.4,18.5z"/>
					<path d="M42.9,25.3h-5.2l0-0.1c0-0.3-0.2-0.5-0.4-0.8c-0.4-0.7-0.8-1.5-0.1-2.4c1-1.4,0.9-2.1,0-3.4l-0.1-0.2l0.2,0
						c0.8-0.1,1.7,0.3,2.1,1.4c0.2-0.8,0.1-1.9-0.2-3.6l-0.2-0.8l0.4,0.7c0.4,0.7,0.9,1.3,1.3,1.8c1.3,1.6,2.6,3.2,2.1,7.2
						L42.9,25.3z M37.9,25.1h4.7c0.4-3.8-0.8-5.3-2.1-6.9c-0.3-0.4-0.7-0.8-1-1.3c0.3,1.6,0.3,2.6,0,3.4l-0.2,0.4l-0.1-0.4
						c-0.2-1.1-1-1.6-1.7-1.7c0.7,1.3,0.9,2.1-0.2,3.5c-0.6,0.8-0.2,1.5,0.1,2.1C37.7,24.5,37.8,24.8,37.9,25.1z"/>
				</g>
			</g>
			<g>
				<rect x="43.4" y="33.3" class="st0" width="0.9" height="70.1"/>
				<rect x="41.4" y="33.3" class="st0" width="0.9" height="70.1"/>
			</g>
		</g>
	</g>
	<g id="Brasão">
		<path class="st4" d="M14.9,86.1V32.6h55.8v53.5C69.9,92.4,54.5,97.7,42.9,98C33.5,98.2,15.4,92.7,14.9,86.1z"/>
		<path class="st5" d="M17.1,85.6V34.7h51.6v50.9C67.9,91.5,53.6,95.7,42.9,96C34.2,96.2,17.5,91.8,17.1,85.6z"/>
		<path class="st6" d="M19.4,85.3V37.2h46.9v48.1c-0.4,3.2-13.7,8.1-23.4,8.3C35,93.8,20,88.7,19.4,85.3z"/>
	</g>
	<g id="Sombra_Brasão">
		<path class="st7" d="M70.8,86.1c-0.7,5.4-12,10-22.5,11.5c-1.6,0.2-3.2,0.4-4.7,0.4c-0.2,0-0.5,0-0.7,0c-1.7,0-3.6-0.1-5.7-0.4
			c-9.6-1.4-21.8-6.1-22.2-11.5"/>
		<path d="M82.5,88.9l2.5-8.4l-0.5-0.5v-1.7c-4.7-5.3-9.1-6.5-15.4-5.4c-6.1,1-17.3,3.2-25.4,3.4c-9.8,0.3-20-3.4-28.5-3.4
			C8.8,72.7,5.1,75,3.5,76.6c-1.3,1.3-3.1,3.3-1.8,6.2c0.2,4.4,1.7,5.6,2.1,6.9c0.2,4.1,3,6.2,5.4,7l-4.6,11.7
			c8.1-0.9,22.4-6.2,30.4-11.1c-8.3-1.6-17.9-5.4-19.8-9.8c-4.3,0.2-6.1-0.9-7.4-2c0.9-1,3.2-2.3,6.8-1.8c4.1,0.5,9.1,1.6,14.7,2.5
			c4.4,0.7,9.2,1.2,14.3,1.2c4,0,8.8-0.5,13.4-1.2c4.6-0.7,9-1.6,12-2.3C75,82.4,77.5,83,79,85c-1.3,1.2-4.1,2.2-8.6,2.3
			c-1.9,4.2-10.1,7.9-18.7,9.6v0c7,5.2,19.5,9.8,31.1,11.1l-6-12.2C80.6,95,82.5,91.9,82.5,88.9z"/>
	</g>
	<g id="Águia_1_">
		<path class="st6" d="M5,45c1.5-1.8,14.3-4.1,18.6-3.1c0,0.2-0.5,0.2-0.3,0.5c0.1,0.3,0.4,0.1,0.6,0c1.4-0.3,2.8-0.1,4,0.5
			c0.4,0.2,0.4,0.2,0.5-0.2c0.1-0.3,0.2-0.1,0.3-0.1c0.7,0.1,1.4,0.3,2.2,0.4c-0.2,0.3-0.4,0.4-0.7,0.4c-1.2,0.1-2.3,0.3-3.5-0.2
			c-1.5-0.6-3.1-0.6-4.6-0.2c-0.3,0.1-0.6,0.2-0.9,0c-1.9-0.9-3.9-0.7-5.9-0.4c-0.3,0.1-1-0.1-0.9,0.4c0.1,0.4,0.6,0,0.9,0
			c1.7-0.4,3.5-0.2,5.2,0.3c0.7,0.2,1.2,0.2,1.9,0.1c1.7-0.4,3.4-0.2,5,0.4c0.3,0.1,0.5,0.3,0.9,0.2c1.9-0.4,3.7-0.1,5.3,1
			c-0.5-0.6-1.1-1-1.9-1.3c1.2,0,2.1,0.4,3.4,1.7c0.1-0.9-0.8-1-1.1-1.7c0.8,0.2,1.6,0.4,2.2,0.9c0.2,0.1,0.3,0.5,0.6,0.3
			c0.1-0.1,0.1-0.2-0.2-0.7c0.6,0.1,1,0.5,1.5,0.8c0.1,0.1,0.3,0.4,0.5,0.2c0.2-0.2-0.1-0.4,0-0.6c0.6,0.1,1,0.6,1.5,0.8
			c0,0,0.1,0.1,0.1,0.1c-0.1,0.4-0.3,0.9-0.6,1.1c-0.5,0.2-0.6,1-1.3,0.7c-2.4-1-4.9-1-7.4-0.2c-2,0.6-4,0.3-6-0.2
			c-2.5-0.7-5.1-1.6-7.6-2.1C13.3,43.9,9.4,44,5.6,45C5.4,45,5.2,45.1,5,45z"/>
		<path class="st8" d="M28.3,51C28.1,51,27.9,51,27.6,51c-0.8,0.1-1.5,0.3-2.2,0.8c-0.1,0.1-0.2,0.2-0.2,0.4
			c0.1,0.2,0.2,0.1,0.3,0.1c0.7-0.3,1.7,0.1,2.3-0.6c0.1-0.1,0.3,0,0.4-0.1c0.2,0,0.6,0.4,0.7-0.1C29,51.2,28.5,51.1,28.3,51z"/>
		<path class="st9" d="M41.6,58.8c0.2,0,0.3,0,0.3-0.2c0-0.4-0.5-0.3-0.7-0.4c-0.2,0-0.3,0.1-0.3,0.2C41,58.7,41.3,58.7,41.6,58.8z"
			/>
		<path class="st9" d="M40.7,56.6c0.2,0,0.2-0.1,0.2-0.2c-0.1-0.5-0.3-0.6-0.7-0.6c-0.2,0-0.2,0.1-0.2,0.3
			C40.2,56.3,40.4,56.5,40.7,56.6z"/>
		<path class="st10" d="M29.8,45.5c-2.4-0.7-4.9-1.5-7.4-0.9c-0.3,0.1-0.7,0-0.9-0.1c-1.1-0.6-2.3-0.8-3.3-0.8c-1-0.1-1.6,0-2.3,0.1
			c-0.3,0-0.6,0.1-0.5,0.4c0.1,0.4,0.4,0.1,0.6,0.1c1.9-0.3,3.7-0.2,5.4,0.7c0.6,0.3,1,0.3,1.5,0.2c1.2-0.3,2.4-0.3,3.6,0
			c1.1,0.2,2.2,0.6,3.3,0.9c0.2,0.1,0.5,0.2,0.6-0.1C30.3,45.5,30,45.5,29.8,45.5z"/>
		<path class="st11" d="M32.3,45.3c-1.1-0.7-2.3-0.9-3.4-0.9c-0.3,0-0.5,0-0.6,0c-0.2,0-0.3,0.1-0.3,0.2c0,0.2,0.2,0.3,0.3,0.3
			c1.4-0.2,2.6,0.3,3.9,0.8c0.2,0.1,0.4,0.1,0.4-0.1C32.7,45.4,32.4,45.3,32.3,45.3z"/>
		<path class="st9" d="M80.3,41.8c-0.1-0.3-0.5-0.1-0.7-0.1c-1.7,0.3-3.4,0.5-5.1,0.2c-1.3-0.2-1.8-0.6-3.8-0.9
			c-0.5-0.3-1.3-0.5-1.9-0.8c-0.9-0.4-1.7-0.7-2.7-0.9c-1.2-0.5-2.4-0.8-3.7-1.1c-2.8-0.6-5.6-0.2-8.4-0.1c-0.8,0-1.6,0.1-2.4,0.3
			c-2.3,0.4-4.5,1.2-6.8,1.7c-2.1,0.4-3.6,1.6-4.4,3.7c-0.3,0.8-0.3,0.8-1.1,0.3c-1.4-0.9-2.9-1.4-4.6-1.3c-0.8,0-1.7-0.1-2.5-0.2
			c-1-0.1-2-0.5-3-0.7c-3.3-0.7-6.6-0.9-9.9-0.9c-1-0.1-2,0-3,0.3c-0.5,0-1-0.1-1.5,0.2C14,42,13,41.9,12,42.2
			c-1.9,0.4-3.9,0.8-5.7,1.6c-1.7,0.7-3.4,1.7-5.1,2.4c-0.5,0.2-1,0.4-1.3,0.8c2.5,0.3,4.9-0.6,7.3-0.6c2.5,0,5.1-0.3,7.6,0.1
			c0.5,0.3,1.1,0.2,1.7,0.1c0.9-0.1,1.8-0.4,2.8-0.3c0.8,0,1.6,0.2,2.5,0.4c1.4,0.4,2.7,0.8,4.1,1.1c0.9,0.2,1.8,0.3,2.7,0.2
			c1-0.1,1.9-0.2,2.9-0.3c1.6-0.2,3.2-0.4,4.6,0.1c-1.3-0.1-2.7,0.2-4.1,0.1c-0.8-0.1-1.7,0.1-2.5,0.3c-1.6,0.5-3.1,1-4.7,1.5
			c-0.5,0.2-0.9,0.4-1.2,0.8c-0.3,0.5-0.8,0.8-1.3,1c-0.8,0.3-1.2,0.8-1.4,1.6c-0.1,0.3-0.3,0.8,0,1c0.3,0.2,0.5-0.2,0.8-0.4
			c0.3-0.2,0.5-0.4,0.9-0.4c0.7-0.1,0.8,0.1,0.6,0.7c-0.1,0.1-0.1,0.3-0.2,0.4c-0.1,0.2-0.1,0.4,0.1,0.6c0.2,0.2,0.4,0.1,0.6,0
			c0.4-0.2,0.8-0.4,1.3-0.5c1.7-0.5,3.4-0.4,5.1-0.3c1.3,0.1,2.6-0.1,3.8,0.8c0.1,0.1,0.2,0.1,0.3,0.1c0.7,0,1,0.3,1.2,0.9
			c0.3,1,1,1.6,2,1.8c0.2,0,0.3,0.1,0.5,0.1c0.9,0.1,1.3,0.8,1.5,1.6c0.1,0.4,0,0.5-0.4,0.4c-0.6-0.2-1.2-0.3-1.8-0.4
			c-0.4-0.1-0.8,0-1.2,0.3c-0.6,0.6-1.3,1.2-2,1.8c-1.5,1.4-3.1,2.8-4.6,4.2c-0.8,0.7-1.5,1.5-2.3,2.2c-0.5,0.5-0.4,0.8,0.3,1
			c0.1,0,0.2,0.1,0.4,0.1c3,0.6,6,1.3,9,2c0.5,0.1,0.7,0.3,1,0.7c0.6,1.2,1.8,1.6,2.9,0.9c0.6-0.3,1-0.4,1.6-0.2
			c3.2,0.6,6.4,1.3,9.6,2c0.6,0.1,1.1,0.1,1.4-0.5c1.8-2.8,3.8-5.5,5.7-8.2c0.3-0.4,0.2-0.7,0-1.1c-0.3-0.5-0.8-0.8-1.1-1.3
			c-0.5-0.6-1.1-0.8-1.8-0.9c-2.3-0.2-4.5-0.4-6.8-0.6c-0.4,0-0.6-0.2-0.7-0.6c-0.1-0.4,0.3-0.4,0.6-0.4c1.1-0.1,1-1,1.3-1.7
			c0.2-0.4-0.2-0.6-0.5-0.9c-0.3-0.3-0.3-0.6,0.2-0.6c1.9-0.1,3.9-0.2,5.7,0.8c0.6,0.3,1.1,0.6,1.7,0.8c0.2,0.1,0.5,0.3,0.8,0
			c0.2-0.3,0-0.6-0.2-0.8c-0.2-0.3-0.5-0.5-0.8-0.8c-0.1-0.1-0.3-0.2-0.2-0.5c0.2,0,0.4,0.1,0.5,0.3c0.5,0.9,1.3,1.5,2.2,2
			c0.4,0.3,0.7,0.6,0.9,1c0.6,1.3,1.5,2.4,2.9,3c0.5,0.2,1,0.5,1.2-0.3c0.1-0.2,0.2-0.1,0.4-0.1c0.2,0,0.3,0,0.4-0.2
			c0.1-0.2-0.1-0.4-0.2-0.4c-0.8-0.4-1-1.1-1.4-1.9c0.5,0.3,0.9,0.6,1.2,1.1c0.1,0.2,0.2,0.5,0.5,0.4c0.3-0.1,0.3-0.4,0.3-0.6
			c0-0.2,0-0.4-0.1-0.5c-0.4-0.8-0.7-1.7-1.4-2.3c-0.4-0.3-0.8-0.8-1.2-1.1c0.3-0.2,0.6-0.1,0.6-0.5c0-0.3-0.3-0.4-0.5-0.5
			c-0.6-0.4-1.1-0.7-1.7-1c-2.5-1.5-5.1-2.9-8.1-3.3c-0.3,0-0.7-0.1-0.9-0.4c-0.8-1.1-2-1.7-3.3-2.3c0.8,0,1.5,0.2,2.2,0.3
			c0.3,0,0.6,0,0.7-0.3c0.1-0.3,0.1-0.5-0.1-0.8c-0.1-0.2-0.3-0.4-0.6-0.5c0,0,0,0,0,0c0,0,0,0,0,0.1c-1.7-1-3.6-0.7-5.5-0.6
			c0.5-1,0.9-1,1.9-0.9c1.3,0.1,2.4,0.7,3.5,1.4c0,0,0,0,0,0.1c0,0,0.1,0,0.1,0c0.7,0.4,1.4,0.4,2.1,0.5c0.4,0,0.7-0.2,0.6-0.6
			c0-0.2,0-0.4-0.1-0.5c-0.1-0.4,0.1-0.6,0.5-0.6c0.7,0.1,1.4,0,2.1,0c0.2,0,0.6,0,0.6-0.1c0.1-0.4,0.4-0.3,0.7-0.3
			c0.2,0,0.5,0,0.6-0.3c0.1-0.3-0.1-0.5-0.4-0.7c1.4,0.3,2.6-0.4,3.9-0.3c0.3,0,0.4-0.2,0.4-0.5c0-0.2,0-0.4,0.3-0.3
			c1,0.1,2-0.2,3-0.1c0.9,0.1,1.8-0.5,2.8,0c0.6-0.1,1.3,0.3,1.9,0c1.7-0.1,3.4,0,5-0.5c1.4-0.4,2.9-0.8,4.2-1.6
			C80.1,42.2,80.5,42.2,80.3,41.8z M2.8,46.4c-0.5,0.2-0.9,0.1-1.6,0.1c0.4-0.2,0.7-0.3,1-0.3c2.4-0.6,4.9-1.3,7.4-1.5
			C7.4,45.5,5.2,46.2,2.8,46.4z M8.7,45.8c1-0.5,2-0.9,3-1C11,45.4,9.8,45.8,8.7,45.8z M10.8,45.8c0.9-0.6,1.9-1,3.1-1
			C12.8,45.2,11.8,45.7,10.8,45.8z M13.1,45.7c1-0.3,2-0.7,3.1-0.6C15.2,45.4,14.3,46.2,13.1,45.7z M15.6,45.9
			c0.8-0.3,1.6-0.9,2.6-0.2C17.3,45.8,16.5,45.9,15.6,45.9z M30.7,47.1c-2,0.6-4,0.3-6-0.2c-2.5-0.7-5.1-1.6-7.6-2.1
			C13.3,43.9,9.4,44,5.6,45c-0.2,0-0.4,0.1-0.6,0c1.5-1.8,14.3-4.1,18.6-3.1c0,0.2-0.5,0.2-0.3,0.5c0.1,0.3,0.4,0.1,0.6,0
			c1.4-0.3,2.8-0.1,4,0.5c0.4,0.2,0.4,0.2,0.5-0.2c0.1-0.3,0.2-0.1,0.3-0.1c0.7,0.1,1.4,0.3,2.2,0.4c-0.2,0.3-0.4,0.4-0.7,0.4
			c-1.2,0.1-2.3,0.3-3.5-0.2c-1.5-0.6-3.1-0.6-4.6-0.2c-0.3,0.1-0.6,0.2-0.9,0c-1.9-0.9-3.9-0.7-5.9-0.4c-0.3,0.1-1-0.1-0.9,0.4
			c0.1,0.4,0.6,0,0.9,0c1.7-0.4,3.5-0.2,5.2,0.3c0.7,0.2,1.2,0.2,1.9,0.1c1.7-0.4,3.4-0.2,5,0.4c0.3,0.1,0.5,0.3,0.9,0.2
			c1.9-0.4,3.7-0.1,5.3,1c-0.5-0.6-1.1-1-1.9-1.3c1.2,0,2.1,0.4,3.4,1.7c0.1-0.9-0.8-1-1.1-1.7c0.8,0.2,1.6,0.4,2.2,0.9
			c0.2,0.1,0.3,0.5,0.6,0.3c0.1-0.1,0.1-0.2-0.2-0.7c0.6,0.1,1,0.5,1.5,0.8c0.1,0.1,0.3,0.4,0.5,0.2c0.2-0.2-0.1-0.4,0-0.6
			c0.6,0.1,1,0.6,1.5,0.8c0,0,0.1,0.1,0.1,0.1c-0.1,0.4-0.3,0.9-0.6,1.1c-0.5,0.2-0.6,1-1.3,0.7C35.7,46.4,33.2,46.3,30.7,47.1z
			 M38.4,48.9c-0.3,0.2-0.5,0.3-0.7,0c0,0,0-0.2,0-0.2C38,48.6,38.2,48.8,38.4,48.9z M21.7,53.1c0.9-1.3,2.3-1.3,3.5,0.1
			C23.9,53.4,22.8,52.2,21.7,53.1z M24,54.2c0-0.1,0-0.1-0.1-0.2c0.6-0.1,1.1-0.7,2.1-0.2C25.2,53.9,24.6,54,24,54.2z M28.2,68.1
			c1.1,0,2.1,0.3,3.1,0.9C30.2,68.6,29.2,68.3,28.2,68.1z M32,68.8c0.9-0.2,2.5,0.3,3.2,0.9C34.2,69.4,33.3,69,32,68.8z M35.7,69.1
			c-1.4-1.1-3.1-1.2-4.8-1.5c-0.2,0-0.4,0-0.5-0.3c2.3,0,4.4,0.9,6.4,1.9C36.4,69.3,35.9,69.2,35.7,69.1z M38,70.2
			c3.2,1,6.6,1.4,9.7,2.5C44.5,71.8,41.1,71.5,38,70.2z M42.5,70.3c1.2,0,2.3,0.4,3.3,0.9C44.7,71,43.6,70.6,42.5,70.3z M47,71.2
			c0.8-0.3,2.9,0.2,3.6,0.9C49.4,71.8,48.3,71.3,47,71.2z M48.6,72.5c0.9-0.2,1.8,0,2.7,0.3C50.4,72.8,49.5,72.5,48.6,72.5z
			 M51.9,72.1c0.3-0.9,0.9-1.6,1.6-2.2C53,70.6,52.4,71.4,51.9,72.1z M52.7,72.2c-0.1-0.1-0.1-0.1-0.2-0.2c1.1-1.5,2.2-3,3.3-4.4
			c0.1,0.1,0.1,0.1,0.2,0.2C54.9,69.2,53.8,70.7,52.7,72.2z M58.1,65.5c-0.5,0.8-1.1,1.4-1.6,2.4C56.6,67.1,57.3,66.1,58.1,65.5z
			 M57.2,64.2c-0.7,1.2-1.4,2.4-2.2,3.6c-0.1,0-0.1-0.1-0.2-0.1c0.7-1.2,1.4-2.4,2.1-3.6C57.1,64.1,57.1,64.2,57.2,64.2z M49.3,62.5
			c2.3,0.2,4.7,0.4,7,0.6c0.5,0,0.6,0.2,0.3,0.6c-1.6,2.4-3.3,4.7-4.9,7.1c-0.3,0.5-0.7,0.3-1.1,0.2c-2.9-0.6-5.8-1.2-8.7-1.8
			c-0.4-0.1-0.7-0.2-1.1,0.3c-0.2,0.4-0.8,0.5-1.3,0.3c-0.4-0.2-0.9-0.5-0.8-1c0.1-0.5-0.2-0.4-0.5-0.5c-2.8-0.6-5.7-1.3-8.6-1.9
			c1-1,2-1.8,2.9-2.7c1.2-1.1,2.4-2.2,3.6-3.3c0.3-0.3,0.6-0.3,0.9-0.2c0.8,0.2,1.5,0.4,2.3,0.5c0.4,0.1,0.4,0.2,0.2,0.5
			c-0.3,0.6-0.6,1.2-1.4,1.4c-0.5,0.1-0.9,0.5-1.6,0.6c-0.7,0-1.3,1-1.1,1.8c0,0.2,0.2,0.3,0.4,0.3c0.7-0.5,1.3,0.6,2,0
			c0,0,0.2,0.1,0.3,0.2c0.3,0.1,0.7,0.3,0.9,0.1c0.3-0.4,1-0.3,1.1-0.5c0.6-0.7,1.2,0,1.8-0.1c0.2,0,0.5,0.1,0.6-0.2
			c0-0.1,0.1-0.2,0.2-0.2c1.1,0.5,1-0.5,1.3-1c0.1-0.2,0.1-0.5,0.3-0.7c0,0,0.1,0,0.1,0.1c0.1,0.2,0,0.7,0.4,0.6
			c0.3,0,0.2-0.4,0.4-0.7c0.2-0.3,0-0.7,0.5-0.8c0.5-0.1,0.7,0.2,1,0.5c0.4,0.5,0.6,1.2,1.2,1.7c0.1-0.4,0-1,0.6-1
			c0,0,0.1-0.2,0.1-0.3C48.2,62.3,48.8,62.4,49.3,62.5z M43.3,63.4c0.1,0.4-0.2,0.4-0.4,0.5c-0.2,0-0.3,0-0.3-0.3
			c0-0.4,0.4-0.5,0.6-0.5C43.4,63,43.2,63.3,43.3,63.4z M46,60c0.6,0.6,1.7,0.8,1.7,1.9C47.2,61.3,46.6,60.7,46,60z M46.7,59.7
			c0.7,0.2,1.3,0.4,2,0.5C47.6,60.6,47.4,60.5,46.7,59.7z M42.8,56.2c0.4-0.1,0.6-0.2,0.7,0c1.1,1.7,2.8,2.4,4.7,2.8
			c0.4,0.1,0.7,0.3,1,0.9C46.5,59.5,44.5,58.2,42.8,56.2z M43.9,50.7c0.1-0.1,0.3,0,0.4,0.1c0.9,0.6,2,1,3.2,1.3
			c-1,0.5-1.8,0.1-2.5-0.3c-0.5-0.3-1-0.6-1.7-0.2c-0.2,0.1-0.4,0-0.7-0.1C43,51.1,43.6,51.1,43.9,50.7z M42.3,48.9
			c0.5-0.4,0.9-0.2,1.2-0.2C43.2,48.9,42.9,49,42.3,48.9z M44.5,54.5c0.4-0.2,0.8-0.3,1.1,0c0.9,0.9,1.9,1.6,2.8,2.4
			C46.6,57.1,45.6,55.7,44.5,54.5z M49.2,58.7c-2.1-0.2-3.7-0.9-4.5-1.9c0.3-0.1,0.4,0.1,0.6,0.2c0.7,0.5,1.4,0.8,2.2,0.7
			C48.2,57.7,48.7,58.1,49.2,58.7z M44.6,53.6c0.9-0.1,1.5,0.2,3.2,1.3l0.4,0.3c0.5,0.5,1.5,1.1,2.3,1.8
			C48,56.7,46.8,54.5,44.6,53.6z M48.5,55l-0.3-0.3c-0.6-0.5-1.8-1.1-2.1-1.3c0.2-0.3,0.5-0.2,0.8-0.1c1,0.3,1.9,0.7,2.6,1.4
			c0.8,0.7,1.5,1.4,2.4,2.2C50.5,56.5,49.5,55.9,48.5,55z M50.6,54.9c1.7-0.2,1.9,1.4,3,2.1C52.5,56.9,51.5,56.1,50.6,54.9z
			 M50,54.1c3.3-0.6,6,0.8,8.7,1.9C55.9,55.4,53,55,50,54.1z M53.2,56.1c1.8,0.3,2.6,0.8,3.2,2.1C55.2,57.6,54.1,57,53.2,56.1z
			 M53.5,55.5c2.4,0.3,4.7,1.1,7.1,1.4C58.1,57,55.7,56.6,53.5,55.5z M57.9,57.4c1.4-0.2,1.7,0.1,1.8,1.7
			C59,58.5,58.3,58.2,57.9,57.4z M59.9,57.4c1.2,1.2,2.7,2.2,3.4,4C61.5,60.5,60.3,59.3,59.9,57.4z M61.2,60.7
			c1.3,0.3,1.8,1.4,2.4,2.4C62.7,62.5,61.6,61.9,61.2,60.7z M64.4,60.3c-1.3-0.8-2.6-1.6-3.6-2.7C61.7,57.2,63.7,58.7,64.4,60.3z
			 M61.5,56.4c0,0.1-0.1,0.1-0.1,0.2c-1.9-0.7-3.9-1.5-5.8-2.2c0-0.1,0-0.1,0.1-0.2C57.8,54.4,59.9,54.8,61.5,56.4z M53.4,52.9
			c0.9,0,1.6,0.4,2.2,0.6c-1.9,0-3.9,0-5.9,0c-0.6,0-1.1-0.2-1.5-0.5c-0.1-0.1-0.3-0.1-0.2-0.3c0.1-0.2,0.2-0.2,0.4-0.2
			c0.4,0,0.8-0.1,1.1,0C50.8,52.9,52.1,52.9,53.4,52.9z M51.7,52.1c-1.3,0-1.9-1.2-3-1.7C49.7,50.3,51.2,51.2,51.7,52.1z M49.4,48.3
			c0.7,0.2,1.5,0.2,2.2,1c-2-0.6-3.7-0.5-5.5,0.1c1.1,0.5,2.3,0.7,3,1.9c-0.5-0.1-1-0.2-1.3-0.6c-0.3-0.3-0.5-0.3-0.6,0.1
			c-0.1,0.4-0.4,0.4-0.7,0.3c-0.6-0.2-1.4-0.1-1.5-0.7c-0.1-0.4,0.6-0.8,1-1.2C46.8,48.2,48.1,48,49.4,48.3z M42.7,48.2
			c0-0.5,0.2-0.8,0.8-0.9c1-0.1,2-0.4,3.1-1C45.3,48,44.4,48.4,42.7,48.2z M43.8,46.9c-0.2,0-0.4,0.2-0.5-0.1
			c-0.1-0.2,0-0.5,0.3-0.6c0.5-0.3,1-0.4,1.5-0.4c0.5,0,1.1,0,1.6,0C45.7,46.1,44.8,46.7,43.8,46.9z M47.7,46.5
			c0.9-0.6,5,0.6,5.9,1.8C51.5,48.2,49.9,46.5,47.7,46.5z M50.1,46.1c1.2-0.2,3,0.5,3.3,1.4C52.3,47.1,51.2,46.4,50.1,46.1z
			 M53,46.2c-2.9-0.8-5.9-1.3-8.9-0.9c-0.1,0-0.2,0.1-0.4,0.1c0-0.7,0.3-1,0.8-1.2c1.2-0.4,2.4-0.4,3.6-0.4c1.7,0,3.4,0.3,4.9,1.3
			c0.9,0.6,2,1,3.1,1.4C55,46.5,54,46.5,53,46.2z M50.4,42.2C49,41.9,47.8,42,46.6,42c-0.4,0.2-0.8,0.1-1.2,0.2
			c0.2-0.3,0.6-0.2,0.9-0.3c0.6-0.1,1.3-0.3,1.9-0.4C49.1,41.2,49.7,41.5,50.4,42.2z M50.1,41.2c1.3-0.8,1.8,0.4,2.7,1
			C51.6,42.4,50.9,41.7,50.1,41.2z M52.7,43.3c-2.8,0-5.6-0.1-8.5,0.5c0.1-0.6,0.3-0.9,0.8-1C47.6,42.1,50.2,42.2,52.7,43.3z
			 M51.8,43.9c2.2-0.1,4.2,0.6,5.7,2.3C55.3,46.1,53.6,45.1,51.8,43.9z M53.6,43c2.1,0.2,4.1,0.9,5.8,2.3
			C57.2,45.3,55.4,44.2,53.6,43z M59,44.4c-1.3-0.8-2.8-1.2-4.2-1.7c-0.7-0.3-1.4-0.6-2.1-1c2.3,0,8.2,2,9.3,3.2
			C60.9,45,59.9,44.9,59,44.4z M52.6,40.9c0.9-0.5,1.4-0.4,1.7,0.5C53.7,41.2,53.2,41.1,52.6,40.9z M58.8,42.7c-1-0.4-1.9-0.9-3-1
			c-0.5-0.1-1-0.3-1.1-1c1.5,0.4,2.9,0.9,4.4,1c1.1,0,2.2,0.4,3.2,0.8c0.8,0.3,1.2,0.9,2,1.5C62.2,44.1,60.5,43.4,58.8,42.7z
			 M64.1,43.2c-1.6-1.5-3.6-2-5.7-2.1c-0.7,0-1.5-0.1-2.2-0.4c4-0.5,7.4,1.2,10.8,3.1C66,43.8,64.9,44.1,64.1,43.2z M68,43.4
			c-1.7-0.7-3.4-1.5-5.1-2.3c4.1,0.8,8,2.6,12.3,2.5C72.9,44.3,70.4,44.3,68,43.4z M75.7,43.1c-2.8,0.2-5.4-0.5-8-1.3
			c-2.2-0.7-4.4-1.4-6.7-1.7c-0.3,0-0.6-0.1-0.8-0.1c-4.9-0.2-9.8,0.4-14.5,1.6c-1.1,0.3-1.6,1.2-2,2.1c-0.5,1-0.8,2-1.1,3.1
			c-0.2,0.5-0.3,1-0.5,1.4c-0.5,1.5-1.6,2.3-3.1,2.8c-0.7,0.2-1.3,0.4-2,0.7c-0.1,0-0.3,0-0.3,0.2c0,0.2,0.2,0.2,0.4,0.2
			c0.3-0.1,0.6-0.1,0.8-0.2c1.1-0.5,2.3-0.5,3.5-0.4c0.3,0,0.6-0.1,0.7,0.4c0,0.4,0.5,0.1,0.7,0.4c-0.1,0.3-0.3,0.3-0.5,0.3
			c-0.6-0.3-1.3-0.1-2-0.3c-0.6-0.2-0.9,0-1,0.7c-0.4-0.1-0.6-0.5-1-0.5c-0.2,0.7,0.2,1,0.8,1.2c1.2,0.3,2.4,0.4,3.6,0.3
			c0.5,0,0.8,0,0.7,0.6c0,0.1,0,0.2,0,0.3c0.1,0.3,0.7,0.6,0.3,0.8c-0.4,0.2-1,0.2-1.4-0.2c-0.2-0.2-0.4-0.4-0.6-0.6
			c-0.1-0.1-0.2-0.3-0.4-0.1c-0.2,0.2,0,0.3,0.1,0.4c0.7,0.9,1.5,1.8,2.3,2.7c-0.7-0.1-1.5,0.1-1.8-0.8c-0.1-0.1-0.2-0.5-0.5-0.2
			c-0.2,0.2,0,0.4,0.2,0.6c0.7,0.8,1.8,0.6,2.6,1.2c0.2,0.2,0.6,0.2,0.6,0.6c-0.5,0.1-0.9-0.2-1.3-0.4c-0.2-0.1-0.3-0.2-0.5-0.3
			c-0.1,0-0.4-0.1-0.5,0.1c-0.1,0.2,0.2,0.2,0.3,0.3c1.3,0.8,2.9,1.3,4,2.5c0.3,0.4,0.6,0.7,0.6,1.3c-1.2-1.3-2.7-2.1-4.1-3
			c-0.2-0.1-0.3-0.2-0.5-0.2c-0.1-0.1-0.3-0.1-0.4,0.1c-0.1,0.2,0,0.3,0.2,0.4c0.7,0.6,0.4,1.5,0.6,2.2c0,0.1-0.1,0.4-0.2,0.4
			c-0.8,0.2-0.7,0.9-0.8,1.5c-0.2,0-0.2-0.1-0.3-0.3c-0.1-0.2,0.1-0.6-0.2-0.6c-0.3,0-0.2,0.4-0.3,0.6c-0.1,0.1-0.1,0.2-0.1,0.3
			c-0.4-0.3-0.8-1.1-1.1,0.2c-0.3-0.6-0.4-0.8,0.2-1c0.8-0.2,1.2-1,1.1-1.8c-0.1-0.8-0.2-1.6,0.1-2.5C41,59.3,41,59.7,41,60
			c0,0.5,0,1,0,1.5c0.1,0.8-0.3,1.3-1,1.5c-1,0.4-1.7,0.9-1.3,2.2c-0.7-0.5-0.5-1.1-0.7-1.6c-0.4,0.4-0.4,1-0.6,1.4
			c-0.3-0.1-0.3-0.3-0.4-0.5c0-0.2,0.1-0.4-0.2-0.5c-0.3,0-0.3,0.2-0.4,0.4c-0.1,0.1-0.2,0.3-0.3,0.5c-0.1-0.8,0.2-1.2,0.8-1.2
			c0.9,0,1.6-0.6,2.4-0.9c0.5-0.2,0.7-1,1-1.6c0.4-1-0.9-3.4-2-3.6c-1.3-0.2-2.3-0.8-2.7-2.2c-0.1-0.6-0.4-0.9-1.1-0.7
			c-0.3,0.1-0.6,0-0.8-0.2c-0.6-0.5-1.3-0.6-2.1-0.6c-1.4,0-2.7-0.1-4.1-0.1c-0.8,0-1.5-0.2-2-1c-0.3-0.5-0.9-0.5-1.4-1
			c-0.4-0.4-0.3-0.6,0-0.8c0.8-0.6,1.7-0.7,2.6-0.5c0.9,0.2,1.8,0.2,2.6-0.1c1.2-0.4,2.3-0.2,3.5-0.1c0.4,0,0.7,0.2,1.1,0.1
			c-0.1,0.5-0.5,0.8-0.3,1.3c0.1,0,0.2,0,0.3-0.1c0.3-0.7,0.9-0.8,1.6-0.7c0.6,0.1,1.3,0.3,1.6-0.6c0.1-0.2,0.5-0.1,0.7-0.2
			c0.3-0.1,0.9,0.4,0.8-0.5c0-0.2,0.2-0.1,0.4-0.1c0.2,0,0.5,0.1,0.7-0.1c0.1-0.1,0.3-0.2,0.3-0.4c0-0.2-0.3-0.1-0.4-0.2
			c-0.3,0-0.6,0-1,0c0.6-0.9,0.9-1.8,1.9-2.3c0.5-0.2,0.7-0.6,0.7-1.2c0.1-1.9,1.7-4,3.6-4.4c2.4-0.6,4.7-1.5,7.1-1.7
			c3.3-0.4,6.6-0.9,9.9-0.4c1.9,0.3,3.7,0.8,5.4,1.5c3.3,1.3,6.6,2.2,10.2,2.1c0.4,0,0.8-0.1,1.3-0.1C77.8,42.9,76.7,43,75.7,43.1z"
			/>
		<path class="st6" d="M75.3,43.6c-2.4,0.8-4.8,0.7-7.2-0.2c-1.7-0.7-3.4-1.5-5.1-2.3C67.1,41.9,71,43.7,75.3,43.6z"/>
		<path class="st6" d="M16.2,45.1c-1,0.3-1.9,1.1-3.1,0.6C14.1,45.4,15.1,45,16.2,45.1z"/>
		<path class="st6" d="M18.3,45.6c-0.9,0.2-1.8,0.3-2.6,0.2C16.5,45.6,17.2,45,18.3,45.6z"/>
		<path class="st6" d="M77.5,42.4c-3.6,0.2-6.9-0.7-10.2-2.1c-0.4-0.1-0.7-0.3-1.1-0.4v1.3c0.5,0.2,1,0.3,1.5,0.5
			c2.6,0.8,5.2,1.4,8,1.3c1.1-0.1,2.1-0.2,3-0.7C78.3,42.4,77.9,42.4,77.5,42.4z"/>
		<path class="st6" d="M67,43.7c-1,0.1-2.1,0.4-2.9-0.5c-1.6-1.5-3.6-2-5.7-2.1c-0.7,0-1.5-0.1-2.2-0.4C60.2,40.2,63.6,41.9,67,43.7
			z"/>
	</g>
	<g id="Laço_1_">
		<path class="st6" d="M1.9,82.2C1.1,80.9,1.8,79,2.6,78c4.2-5.3,11-5.6,19.5-4.4c6.5,1,13.8,3,22,2.8c2.9-0.1,6.2-0.5,9.2-0.9
			c3.4-0.4,6.5-0.9,8.3-1.2c1.4-0.2,3.6-0.7,6.2-1.2c5.7-1.1,11.2-1,16.5,5v1.2c-5.7-5.9-9.3-6.5-16.2-5.1c-0.8,0.2-2,0.4-2.9,0.5
			c-1.3,0.2-2.1,0.3-3.4,0.5c-5.8,1-11.7,1.9-17.8,2c-3.8,0.1-10.3-0.5-14.4-1.3c-3-0.6-7.1-1.4-11.4-1.8
			c-5.8-0.5-11.8,0.1-15.2,4.8C2.6,79.8,2.1,80.9,1.9,82.2z"/>
		<path class="st1" d="M84.7,80.6l-2.2,7c-0.1-0.7-0.3-1.2-0.5-1.6c-1.7-3.3-4.7-5.2-8.6-4.7c-2.7,0.3-5.3,0.8-7.9,1.3
			c-2.1,0.4-4.2,0.9-6.3,1.3c-1.8,0.3-3.6,0.6-5.4,0.8c-0.7,0.1-1.3,0.2-2,0.3c-2.5,0.3-5.1,0.4-7.6,0.4c-2.8,0.1-5.6-0.1-8.4-0.3
			c-1.9-0.2-3.8-0.5-5.7-0.7c-0.6-0.1-1.2-0.3-1.8-0.3c-0.3-0.2-0.7-0.1-1.1-0.3c-1.3-0.2-2.6-0.4-3.9-0.7c-2.7-0.6-5.4-1-8.1-1.3
			c-2.3-0.3-4.6-0.2-6.8,0.8c-1.6,0.7-2.7,2-3.5,3.5c-0.3,0.6-0.7,1.4-1,2.5l-0.6-1.2c-2.3-4.5-1.1-8,2.9-11c2-1.4,4.3-1.8,6.7-2
			c2.8-0.3,5.6,0.1,8.4,0.4c3.4,0.4,6.6,1.2,9.9,1.8c2.9,0.5,5.8,0.9,8.8,1c2.3,0,4.7,0.2,7,0c2.6-0.2,5.1-0.5,7.7-0.8
			c2.8-0.4,5.6-0.9,8.3-1.3c2-0.3,3.9-0.6,5.9-1c3.7-0.8,7.3-0.6,10.6,1.4c1.6,1,2.9,2.3,4.3,3.7L84.7,80.6z"/>
		<path class="st12" d="M53.4,96c0.2,0.2,0.4,0.3,0.6,0.5c0.3-0.1,0.5-0.1,0.7-0.2c-0.2-0.2-0.5-0.4-0.7-0.5l6.8-2.8
			c0.4,0.3,0.9,0.6,1.3,0.8c0.1-0.1,0.3-0.1,0.4-0.2l0.1-0.9l1.3,0.3c2.7-1.4,4.8-3,5.9-4.7c0,0,0,0,0,0l0.3-0.6c0,0,0,0,0,0
			c0.3-0.5,0.4-1,0.5-1.6c-0.1,0.5-0.3,1-0.5,1.6c1.4,0,3.2-0.1,4.5-0.4c1.5-0.4,3.1-0.9,4.5-1.8l0.3,0.4c-1.1,0.7-2.4,1.4-4.5,1.9
			c-1.2,0.3-3.4,0.6-5.2,0.5c-1.1,1.7-3.2,3.3-5.9,4.7l0,0c5.7,1.8,8.3,1.9,10.7,1.7c4.5-0.4,6.1-2.9,6.2-5.4c0.1-2-0.9-3.7-1.9-4.8
			c-3-3-8-1.1-10.5-0.7c-0.8,0.1-2.5,0.5-3.3,0.6c-1.3,0.2-1.7,0.4-3,0.6c-5.8,1-11.7,1.9-17.7,2.1c-3.8,0.1-10.4-0.6-14.6-1.2
			c-3.1-0.5-6.9-1.2-11.2-2c-3.5-0.6-6.6-1.1-9.1,0c-1.4,0.7-2.9,1.8-3.9,4.4c-0.2,0.6-1.4,7.5,8.4,7c2.4-0.1,5.5-0.4,9.4-1.6
			c-0.1,0-0.2-0.1-0.3-0.1c-4.5,1.1-13.3,2.7-16.1-0.4c-1.4-1.6-2.3-4.5,0-6.9c3.1,2.3,5.3,2.5,8.7,2.2c0-0.1-0.1-0.1-0.1-0.2
			c-1.6,0.1-2.9,0.1-4.1-0.1c-1.8-0.4-2.8-0.9-4.4-2.1l0.3-0.4c1.9,1.3,3.1,1.7,4.4,1.9c1,0.1,2.3,0.2,3.3,0.1
			c-0.2-0.5-0.4-1-0.4-1.5c0,0.5,0.2,1,0.4,1.5c0,0,0,0,0,0l0.3,0.6c0,0,0,0,0,0c0,0.1,0.1,0.1,0.1,0.2c0,0,0,0,0.1,0
			c1.3,2,4,3.7,7.4,5.2c0,0-0.1,0-0.1,0c0.1,0,0.2,0.1,0.3,0.1c0,0,0,0,0.1,0l1.5-0.7l0.6,1.5c0,0,0,0,0,0c0.1,0,0.3,0.1,0.4,0.1
			c0,0,0.1,0,0.1,0l5.6,1.7c0,0,0,0-0.1,0c0.4,0.1,0.7,0.2,1.1,0.3c0,0,0.1,0,0.1-0.1l0.7,0.2c0,0,0,0-0.1,0
			c3.4,0.8,6.8,1.2,9.4,1.1c3.1-0.1,6.6-0.5,9.9-1.3c-0.2-0.1-0.3-0.2-0.5-0.3L53.4,96z M78.4,93c-4.1,2.3-10.4,0.7-14-0.4
			c2.5-1,4.3-2.4,5.4-4.2c4.1,0,6.6-0.4,10-2.4C81.6,88.7,80.2,92,78.4,93z"/>
		<path class="st6" d="M14.1,95.3c-9.8,0.5-8.7-6.4-8.4-7c1-2.6,2.5-3.8,3.9-4.4c2.4-1.2,5.5-0.7,9.1,0c4.3,0.8,8.2,1.5,11.2,2
			c4.2,0.6,10.8,1.3,14.6,1.2c6-0.1,12-1.1,17.7-2.1c1.3-0.2,1.7-0.4,3-0.6c0.8-0.1,2.5-0.5,3.3-0.6C71,83.3,76,81.4,79,84.4
			c1,1,2,2.8,1.9,4.8c-0.1,2.5-1.7,5-6.2,5.4c-2.5,0.2-5,0.1-10.7-1.7l0,0c-0.4,0.2-0.9,0.4-1.4,0.7l0,0c3.5,1.8,7.9,2.3,10.8,2.3
			c6.9,0.1,9.1-4,8.8-7.9c-0.2-1.8-1.2-3.3-2.6-4.6c-3.3-3.2-9.2-1.3-11-0.9c-2.6,0.5-5.2,1.1-6.6,1.3c-1.8,0.3-5,1-8.4,1.4
			c-3,0.4-6.3,0.6-9.2,0.6c-8.2,0.2-15.5-1.5-22-2.6c-5.4-0.9-10.2-2-13.5-0.4c-0.9,0.4-3.3,1.7-4.5,5.5c-0.3,1-0.6,5.8,4.1,7.7
			c1.4,0.6,3.2,0.8,5.6,0.7c2.9-0.1,6.7-0.6,11.5-2.2c-0.7-0.3-1.4-0.6-2.1-0.9C19.6,94.9,16.5,95.2,14.1,95.3z"/>
		<path class="st1" d="M80.9,105.4l-4.7-9.3c-3.6,0.1-9.1,0.3-14-2.4c-2.3,1-4.8,1.9-7.5,2.6C60.8,100.7,75.5,104.7,80.9,105.4z"/>
		<path class="st1" d="M81.3,106.1c-2.8,0-19.7-4.3-27.2-9.7c-0.4,0.1-0.8,0.2-1.3,0.3c10.1,6.9,23.1,9.6,29,10.5L81.3,106.1z"/>
		<path class="st1" d="M10,96.9l-3.5,8.8c6.6-0.9,18.6-5.3,25.2-9.2c-1.9-0.5-3.9-1.1-5.7-1.7C20.8,96.8,13.6,97.5,10,96.9z"/>
		<path class="st1" d="M6.3,106.4l-0.5,1.1c5.9-0.9,17.1-4.1,27.6-10.6c-0.2-0.1-0.5-0.1-0.7-0.2C25.6,101.3,10.5,106.4,6.3,106.4z"
			/>
		<path class="st6" d="M79.6,85.8l-0.3-0.4c-1.4,1-2.9,1.5-4.5,1.8c-1.3,0.3-3.1,0.4-4.5,0.4c-0.1,0.2-0.2,0.4-0.4,0.6
			c1.9,0,4-0.3,5.2-0.5C77.2,87.2,78.5,86.4,79.6,85.8z"/>
		<path class="st6" d="M12.1,87.5c-1.3-0.2-2.5-0.6-4.4-1.9L7.3,86c1.6,1.2,2.6,1.7,4.4,2.1c1.1,0.2,2.5,0.2,4.1,0.1
			c-0.1-0.2-0.3-0.4-0.4-0.6C14.3,87.7,13,87.6,12.1,87.5z"/>
		<path class="st1" d="M15.8,88.4c-3.4,0.3-5.7,0.2-8.7-2.2c-2.3,2.4-1.4,5.3,0,6.9c2.7,3.2,11.6,1.5,16.1,0.4
			C19.9,92.1,17.2,90.3,15.8,88.4z"/>
		<path class="st1" d="M79.7,86c-3.4,2.1-5.8,2.5-10,2.4c0,0,0,0,0,0c-1.1,1.5-3,2.9-5.4,4.2c0,0,0,0,0,0c3.6,1.1,9.9,2.7,14,0.4
			C80.2,92,81.6,88.7,79.7,86z"/>
	</g>
	<g>
		<path class="st6" d="M2.6,82.6l0.5-0.4l1.2,1.3c0.2,0.2,0.3,0.3,0.4,0.4c0.1,0.1,0.2,0.1,0.4,0.1c0.1,0,0.3-0.1,0.4-0.2
			c0.1-0.1,0.2-0.2,0.2-0.4c0-0.1,0-0.2-0.1-0.3c-0.1-0.1-0.2-0.2-0.3-0.4L4,81.3l0.5-0.4l1.1,1.2c0.3,0.3,0.4,0.5,0.5,0.6
			c0.1,0.1,0.1,0.3,0.1,0.4c0,0.1,0,0.3-0.1,0.4c-0.1,0.2-0.2,0.3-0.4,0.5c-0.2,0.2-0.4,0.3-0.6,0.4c-0.2,0.1-0.3,0.1-0.5,0
			c-0.1,0-0.3-0.1-0.4-0.1c-0.2-0.1-0.3-0.3-0.6-0.6L2.6,82.6z"/>
		<path class="st6" d="M7.2,82.9l-1.5-2.8l0.5-0.3L8.3,81l-1-1.8l0.5-0.3l1.5,2.8l-0.6,0.3l-2.1-1.2l1,1.8L7.2,82.9z"/>
		<path class="st6" d="M10,81.4l-1-3l0.6-0.2l1,3L10,81.4z"/>
		<path class="st6" d="M12.1,80.8l-1.8-2.8l0.7-0.1l1.3,2.1l0.3-2.5l0.7-0.1l-0.4,3.3L12.1,80.8z"/>
		<path class="st6" d="M14.2,80.3l-0.1-3.2l2.3-0.1l0,0.5l-1.7,0.1l0,0.7l1.6-0.1l0,0.5l-1.6,0.1l0,0.9l1.8-0.1l0,0.5L14.2,80.3z"/>
		<path class="st6" d="M17.3,80.3l0.2-3.2l1.3,0.1c0.3,0,0.6,0.1,0.7,0.1c0.2,0.1,0.3,0.2,0.4,0.3C20,77.8,20,78,20,78.2
			c0,0.2-0.1,0.4-0.2,0.6c-0.1,0.1-0.4,0.2-0.6,0.3c0.1,0.1,0.2,0.2,0.3,0.3c0.1,0.1,0.2,0.3,0.3,0.5l0.4,0.6l-0.8,0l-0.4-0.7
			c-0.2-0.3-0.3-0.4-0.3-0.5c-0.1-0.1-0.1-0.1-0.2-0.1c-0.1,0-0.2,0-0.3-0.1L18,79l-0.1,1.3L17.3,80.3z M18,78.5l0.5,0
			c0.3,0,0.5,0,0.6,0c0.1,0,0.1-0.1,0.2-0.1c0-0.1,0.1-0.1,0.1-0.2c0-0.1,0-0.2-0.1-0.3c-0.1-0.1-0.1-0.1-0.2-0.1
			c-0.1,0-0.2,0-0.5,0l-0.5,0L18,78.5z"/>
		<path class="st6" d="M20.6,79.5l0.6,0c0,0.2,0.1,0.4,0.2,0.5c0.1,0.1,0.2,0.2,0.4,0.2c0.2,0,0.4,0,0.5-0.1
			c0.1-0.1,0.2-0.2,0.2-0.3c0-0.1,0-0.1,0-0.2c0-0.1-0.1-0.1-0.2-0.2c-0.1,0-0.2-0.1-0.5-0.2c-0.3-0.1-0.5-0.3-0.7-0.4
			c-0.2-0.2-0.2-0.4-0.2-0.7c0-0.2,0.1-0.3,0.2-0.4c0.1-0.1,0.3-0.2,0.4-0.3c0.2,0,0.4,0,0.6,0c0.4,0.1,0.7,0.2,0.8,0.4
			c0.2,0.2,0.2,0.5,0.2,0.7l-0.6-0.1c0-0.2,0-0.3-0.1-0.4c-0.1-0.1-0.2-0.1-0.4-0.2c-0.2,0-0.3,0-0.4,0c-0.1,0-0.1,0.1-0.1,0.2
			c0,0.1,0,0.1,0.1,0.2c0.1,0.1,0.3,0.2,0.5,0.3c0.3,0.1,0.5,0.2,0.6,0.3c0.1,0.1,0.2,0.2,0.3,0.4c0.1,0.1,0.1,0.3,0,0.5
			c0,0.2-0.1,0.3-0.2,0.5c-0.1,0.1-0.3,0.2-0.5,0.3c-0.2,0-0.4,0-0.7,0c-0.4-0.1-0.7-0.2-0.9-0.4C20.7,80.1,20.6,79.8,20.6,79.5z"/>
		<path class="st6" d="M23.6,81l0.6-3.1l0.6,0.1l-0.6,3.1L23.6,81z"/>
		<path class="st6" d="M25.6,78.2l1.2,0.2c0.3,0,0.5,0.1,0.6,0.2c0.2,0.1,0.3,0.2,0.4,0.4c0.1,0.2,0.2,0.3,0.2,0.6s0,0.5,0,0.8
			c0,0.3-0.1,0.5-0.2,0.6c-0.1,0.2-0.3,0.4-0.4,0.5c-0.1,0.1-0.3,0.1-0.5,0.2c-0.1,0-0.3,0-0.6,0l-1.2-0.2L25.6,78.2z M26.1,78.8
			l-0.3,2.1l0.5,0.1c0.2,0,0.3,0,0.4,0c0.1,0,0.2,0,0.3-0.1c0.1-0.1,0.1-0.1,0.2-0.3c0.1-0.1,0.1-0.3,0.2-0.6c0-0.2,0-0.4,0-0.6
			c0-0.1-0.1-0.2-0.1-0.3C27.1,79.1,27,79,26.9,79c-0.1,0-0.3-0.1-0.5-0.1L26.1,78.8z"/>
		<path class="st6" d="M31.2,82.4l-0.7-0.1l-0.1-0.8l-1.2-0.3l-0.4,0.7l-0.7-0.1l1.8-2.9l0.7,0.1L31.2,82.4z M30.3,81l-0.2-1.2
			l-0.7,1.1L30.3,81z"/>
		<path class="st6" d="M32.4,79.4l1.1,0.3c0.3,0.1,0.4,0.1,0.6,0.2c0.2,0.1,0.3,0.2,0.4,0.4c0.1,0.2,0.2,0.4,0.2,0.6
			c0,0.2,0,0.5-0.1,0.8c-0.1,0.3-0.1,0.5-0.3,0.6c-0.1,0.2-0.3,0.4-0.5,0.5c-0.1,0.1-0.3,0.1-0.5,0.1c-0.1,0-0.3,0-0.6-0.1l-1.2-0.3
			L32.4,79.4z M32.9,80.1l-0.5,2l0.5,0.1c0.2,0,0.3,0.1,0.4,0.1c0.1,0,0.2,0,0.3-0.1c0.1,0,0.2-0.1,0.2-0.3c0.1-0.1,0.1-0.3,0.2-0.5
			c0.1-0.2,0.1-0.4,0.1-0.6c0-0.1,0-0.3-0.1-0.3c-0.1-0.1-0.1-0.2-0.3-0.2c-0.1,0-0.2-0.1-0.5-0.2L32.9,80.1z"/>
		<path class="st6" d="M35.1,83.4l0.5-3.1l2.3,0.4l-0.1,0.5l-1.7-0.3L36,81.6l1.6,0.2l-0.1,0.5L36,82.1l-0.1,0.8l1.7,0.3l-0.1,0.5
			L35.1,83.4z"/>
		<path class="st6" d="M39.7,83.8l0.2-3.2l2.2,0.1l0,0.5l-1.5-0.1l0,0.7l1.3,0.1l0,0.5l-1.3-0.1l-0.1,1.3L39.7,83.8z"/>
		<path class="st6" d="M42.5,83.9l0-3.2l2.3,0v0.5l-1.7,0V82l1.6,0l0,0.5l-1.6,0v0.9l1.8,0v0.5L42.5,83.9z"/>
		<path class="st6" d="M45.4,80.7l1.2-0.1c0.3,0,0.5,0,0.6,0c0.2,0,0.4,0.1,0.5,0.2c0.1,0.1,0.3,0.3,0.4,0.5
			c0.1,0.2,0.2,0.4,0.2,0.7c0,0.3,0,0.5,0,0.7c-0.1,0.2-0.1,0.4-0.3,0.6c-0.1,0.1-0.2,0.2-0.4,0.3c-0.1,0.1-0.3,0.1-0.6,0.1
			l-1.2,0.1L45.4,80.7z M46.1,81.2l0.2,2.1l0.5-0.1c0.2,0,0.3,0,0.4-0.1c0.1,0,0.2-0.1,0.2-0.2c0.1-0.1,0.1-0.2,0.1-0.3
			c0-0.1,0-0.3,0-0.6c0-0.2-0.1-0.4-0.1-0.6c-0.1-0.1-0.1-0.2-0.2-0.3c-0.1-0.1-0.2-0.1-0.3-0.1c-0.1,0-0.3,0-0.5,0L46.1,81.2z"/>
		<path class="st6" d="M49,83.5l-0.4-3.1l2.3-0.3l0.1,0.5l-1.7,0.2l0.1,0.7l1.6-0.2l0.1,0.5L49.4,82l0.1,0.9l1.8-0.2l0.1,0.5
			L49,83.5z"/>
		<path class="st6" d="M51.9,83.2L51.7,80l1.3-0.1c0.3,0,0.6,0,0.7,0c0.2,0,0.3,0.1,0.4,0.3c0.1,0.1,0.2,0.3,0.2,0.5
			c0,0.2,0,0.4-0.2,0.6c-0.1,0.2-0.3,0.3-0.6,0.3c0.1,0.1,0.3,0.1,0.4,0.2c0.1,0.1,0.2,0.2,0.4,0.5l0.4,0.6L54,83l-0.5-0.6
			c-0.2-0.2-0.3-0.4-0.4-0.4c-0.1-0.1-0.1-0.1-0.2-0.1c-0.1,0-0.2,0-0.3,0l-0.1,0l0.1,1.3L51.9,83.2z M52.4,81.3l0.5,0
			c0.3,0,0.5-0.1,0.6-0.1c0.1,0,0.1-0.1,0.2-0.1c0-0.1,0.1-0.1,0-0.2c0-0.1,0-0.2-0.1-0.2c-0.1-0.1-0.1-0.1-0.3-0.1
			c-0.1,0-0.2,0-0.5,0l-0.5,0L52.4,81.3z"/>
		<path class="st6" d="M58.1,82.4l-0.7,0.1L57,81.8L55.8,82l-0.1,0.7l-0.7,0.1l0.7-3.3l0.7-0.1L58.1,82.4z M56.7,81.3l-0.6-1.1
			l-0.2,1.2L56.7,81.3z"/>
		<path class="st6" d="M58.6,82.3l-0.7-3.1l0.6-0.1l0.5,2.5l1.6-0.3l0.1,0.5L58.6,82.3z"/>
		<path class="st6" d="M62,78.3l1.1-0.2c0.3,0,0.5-0.1,0.6,0c0.2,0,0.4,0.1,0.5,0.2c0.2,0.1,0.3,0.3,0.4,0.5
			c0.1,0.2,0.2,0.4,0.2,0.7c0,0.3,0.1,0.5,0,0.7c0,0.2-0.1,0.4-0.2,0.6c-0.1,0.1-0.2,0.2-0.4,0.3c-0.1,0.1-0.3,0.1-0.5,0.2l-1.2,0.2
			L62,78.3z M62.7,78.8l0.4,2.1l0.5-0.1c0.2,0,0.3-0.1,0.4-0.1c0.1,0,0.2-0.1,0.2-0.2c0.1-0.1,0.1-0.2,0.1-0.3c0-0.1,0-0.3,0-0.6
			c0-0.2-0.1-0.4-0.2-0.5c-0.1-0.1-0.1-0.2-0.2-0.3c-0.1-0.1-0.2-0.1-0.3-0.1c-0.1,0-0.3,0-0.5,0.1L62.7,78.8z"/>
		<path class="st6" d="M65.5,79.4c0-0.3,0-0.6,0.1-0.8c0.1-0.2,0.1-0.3,0.2-0.5c0.1-0.1,0.2-0.2,0.4-0.3c0.2-0.1,0.4-0.2,0.7-0.2
			c0.5,0,0.8,0.1,1.2,0.3s0.5,0.6,0.5,1.2c0.1,0.5,0,0.9-0.3,1.2c-0.2,0.3-0.6,0.5-1.1,0.5c-0.5,0.1-0.9-0.1-1.2-0.3
			C65.8,80.3,65.6,79.9,65.5,79.4z M66.2,79.3c0,0.4,0.1,0.6,0.3,0.8c0.2,0.2,0.4,0.2,0.7,0.2s0.5-0.1,0.6-0.3
			c0.1-0.2,0.2-0.5,0.2-0.8c0-0.4-0.1-0.6-0.3-0.8c-0.2-0.2-0.4-0.2-0.7-0.2c-0.3,0-0.5,0.1-0.6,0.3C66.2,78.7,66.1,78.9,66.2,79.3z
			"/>
		<path class="st6" d="M70.8,80.4l-0.2-3.2l1-0.1c0.4,0,0.6,0,0.8,0c0.2,0,0.3,0.1,0.5,0.3c0.1,0.2,0.2,0.4,0.2,0.6
			c0,0.2,0,0.4-0.1,0.5c-0.1,0.1-0.1,0.2-0.3,0.3C72.6,79,72.5,79,72.4,79c-0.2,0-0.4,0.1-0.7,0.1l-0.4,0l0.1,1.2L70.8,80.4z
			 M71.3,77.7l0,0.9l0.3,0c0.3,0,0.4,0,0.5-0.1c0.1,0,0.1-0.1,0.2-0.2c0-0.1,0.1-0.2,0.1-0.2c0-0.1,0-0.2-0.1-0.3
			c-0.1-0.1-0.2-0.1-0.3-0.1c-0.1,0-0.2,0-0.5,0L71.3,77.7z"/>
		<path class="st6" d="M76.3,80.5l-0.7-0.1l-0.2-0.7l-1.3-0.1l-0.3,0.7l-0.7-0.1l1.5-3l0.7,0.1L76.3,80.5z M75.3,79.1l-0.3-1.2
			L74.4,79L75.3,79.1z"/>
		<path class="st6" d="M76.7,80.5l1.1-2.9l1.3,0.5c0.3,0.1,0.5,0.2,0.7,0.3c0.1,0.1,0.2,0.2,0.2,0.4c0,0.2,0,0.3-0.1,0.5
			c-0.1,0.2-0.2,0.4-0.4,0.5c-0.2,0.1-0.4,0.1-0.7,0c0.1,0.1,0.2,0.2,0.2,0.4c0,0.1,0.1,0.3,0.2,0.6l0.1,0.7l-0.7-0.3l-0.2-0.8
			c-0.1-0.3-0.1-0.5-0.1-0.6c0-0.1-0.1-0.1-0.1-0.2c-0.1,0-0.2-0.1-0.3-0.1l-0.1,0l-0.5,1.2L76.7,80.5z M78,79.1l0.4,0.2
			c0.3,0.1,0.5,0.2,0.5,0.2c0.1,0,0.2,0,0.2-0.1c0.1,0,0.1-0.1,0.1-0.2c0-0.1,0-0.2,0-0.3c0-0.1-0.1-0.1-0.2-0.2
			c0,0-0.2-0.1-0.4-0.2l-0.5-0.2L78,79.1z"/>
		<path class="st6" d="M81.8,83.7l-0.5-0.5l0.3-0.7l-0.9-0.9l-0.7,0.4l-0.5-0.5l3-1.5l0.5,0.5L81.8,83.7z M81.8,82l0.5-1.2l-1.1,0.6
			L81.8,82z M82.6,79.9l0.7-0.3l0.5,0.5l-0.9,0.1L82.6,79.9z"/>
	</g>
</g>
</svg>
